<svg xmlns="http://www.w3.org/2000/svg" xmlns:xlink="http://www.w3.org/1999/xlink" id="katman_1" x="0px" y="0px" viewBox="0 0 458.6 497.6" style="enable-background:new 0 0 458.6 497.6;" xml:space="preserve"><style type="text/css">	.st0{fill:#FFFFFF;}	.st1{fill:#A28B65;}	.st2{fill:#A18B64;}</style><path class="st0" d="M412.5,315.2l15.3-50.3c-44.2,24.6-69.5,31.4-117.8,40.4l2.2,14.8c21.1-4,42-9.5,62.4-16.5l1.5-0.5l0.9,3.1 c5.3,18.9,10.5,37.8,15.8,56.7c20.8-7,41.1-16.2,65.9-30L412.5,315.2z M83,312.4l-14.3,51.4c20.5,6.7,41.8,11.5,68.5,16.5l8.7-57.3 c-20.8-3.9-41.3-9.3-61.4-16L83,312.4z M46.1,315.2L0,332.9c24.8,13.8,45.1,23,65.9,30c4.8-17.1,9.5-34.2,14.2-51.3l2.4-8.5l1.5,0.5 c20.4,6.9,41.2,12.4,62.4,16.5l2.2-14.8c-48.3-9-73.5-15.8-117.7-40.4L46.1,315.2z M374,307c-20.1,6.7-40.5,12.1-61.3,16l8.7,57.3 c26.7-5,47.9-9.7,68.5-16.5C384.6,344.9,379.3,326,374,307z"></path><path class="st1" d="M395.3,377.8c-107.6,36.8-224.4,36.8-332,0c6.7-24.2,13.5-48.5,20.2-72.8c94.5,32.3,197.1,32.3,291.6,0 C381.8,329.3,388.5,353.5,395.3,377.8"></path><path class="st2" d="M101.4,155c0,6.3,0,12.6,0,18.9V187c0,0.8,0.1,1.7,0.1,2.6c4.9-1.9,7.1-5,7.1-9.9v-4.9l0,0c0-33,0.1-66,0.1-99 c0-2.5,0.6-4,3-5.3C149.6,50.4,187.3,30.2,225,9.9c3-1.6,5.2-1.7,8.2-0.1c37.8,20.3,75.7,40.6,113.6,60.8c1.9,0.8,3,2.8,2.8,4.8 c-0.1,29.2-0.1,58.5-0.1,87.7v16.6c0,4.8,2.3,7.9,7.3,9.9c0-0.9,0.1-1.7,0.1-2.6v-23.9c0-30.7,0-61.3,0-92c0.2-2-0.9-4-2.8-4.8 c-11.1-5.8-22.1-11.7-33.1-17.6c-29.9-16-59.7-32-89.6-48c-1.5-0.9-3.3-0.9-4.8,0.1c-5.1,2.8-10.2,5.6-15.4,8.3 c-35.8,19.1-71.5,38.2-107.3,57.3c-1.8,0.7-2.9,2.6-2.7,4.5C101.4,98.9,101.4,127,101.4,155"></path><path class="st2" d="M353.3,210.7c-4.9-3.8-9.4-8-14.2-11.8c-2.3-1.6-3.5-4.3-3.3-7.1c0.1-36.2,0-72.3,0.1-108.5 c0-2.3-0.6-3.7-2.8-4.8c-5.4-2.7-10.7-5.7-16-8.5l-74.7-40.2c-4.5-2.4-4.5-2.4-4.5,2.8c0,8.1,0.1,16.2-0.1,24.3 c-0.2,1.6,0.8,3.2,2.3,3.8c21.7,11.6,43.3,23.3,65,34.9c1.9,1,2.8,2.2,2.8,4.5c-0.1,8.7,0,17.5-0.1,26.2c-0.1,2.7,1.1,3.1,3.3,2.9 c1.9-0.2,4.1,0.8,4-2.8c-0.2-10.4-0.1-20.7,0-31.1c0.2-1.7-0.9-3.4-2.5-4c-19.3-10.3-38.3-21.2-58-30.9c-7.8-3.9-11.1-8.5-9.6-16.8 c0-0.2,0-0.4,0-0.7c-0.1-2.5,0.6-3.3,3.2-1.9c25.7,13.9,51.5,27.8,77.3,41.6c2.1,0.9,3.4,3,3.1,5.3c-0.1,33.2,0.2,66.5-0.3,99.8 c-0.1,8.4,1.2,14.9,8.9,19.1c0.3,0.2,0.5,0.4,0.7,0.7l18.5,15.7c0.8-1.6,0.3-2.8,0.5-4C357.7,215.5,356.2,213,353.3,210.7"></path><path class="st2" d="M354.7,245.1c-12.5-10.5-24.8-21.1-37.3-31.6c-1.6-1.2-2.4-3.1-2.3-5c0.1-17.4,0-34.8,0-52.1 c0-6.6,0-6.7-6.6-6.5c-2.6,0.3-5.1-1.1-6.1-3.5c-5.3-9.6-10.8-19.2-16.4-28.7c-1-1.8-1.1-2.9,0.5-4.4c3.7-3.2,4.9-8.4,3.2-13 c-1.4-4.6-5.4-7.9-10.2-8.4c-5.3-0.7-9.8,1.3-12.3,6c-1.5,2.9-3.2,2.8-5.7,1.8c-1.2-0.5-2.3-1.2-3.1-2.2c-2.8-3-5.6-6-8.5-8.9 c-2.7-3-6.3-5-10.3-5.7c-2.2-0.4-5.1,1-6.4-0.9s-0.4-4.6-0.4-7c0.1-2.7-1.9-3.5-3.7-3.5s-3.6,0.8-3.5,3.3c0.1,1.6-0.1,3.2,0,4.8 c0.2,2.2-0.6,3.2-2.9,3c-6-0.5-10.7,2.1-14.7,6.2c-2.6,2.7-5.2,5.5-7.8,8.2c-1.3,1.4-3,2.4-4.9,2.9c-1.8,0.5-2.8,0.2-3.8-1.7 c-2.1-4.6-6.9-7.3-11.9-6.7c-6.9,0.5-12.1,6.4-11.6,13.3c0.2,3.1,1.5,5.9,3.7,8.1c1.5,1.5,1.8,2.5,0.6,4.4 c-5.1,8.7-10.3,17.2-14.9,26.2c-2.4,4.8-5.3,7.2-10.7,6.1c-2.7-0.6-3.7,0.4-3.7,3.4c0.1,18.1,0,36.3,0.1,54.4c0.2,2.6-1,5-3,6.6 c-12.2,10.2-24.4,20.6-36.6,30.9c-1.6,1.2-2.5,3.2-2.4,5.3c0,9.1,0.1,18.2,0.1,27.3c2.5,1.2,5,2.3,7.4,3.4c0-9.1,0-18.2-0.1-27.3 c-0.1-2.1,0.8-4.2,2.5-5.5c11.5-9.7,22.9-19.4,34.3-29.1c1-1.2,2.8-1.3,4-0.4c4.2,2.3,8.3,4.6,12.6,6.6c2.3,1.1,2,1.8,0.3,3.3 c-10.9,9.3-21.8,18.7-32.8,27.9c-1.6,1.2-2.5,3.2-2.4,5.2c0,9,0.1,18,0.1,27c2.6,1,5,1.8,7.3,2.6c0-8.9,0-17.7-0.1-26.6 c-0.1-1.8,0.6-3.6,2.1-4.7c9.5-8,18.9-16.1,28.4-24.1c0.6-0.5,1.1-1.5,2.3-0.8c0,6.8,0,13.7,0,20.6c0,1.3-0.6,2.5-1.7,3.3 c-3.7,3.1-7.4,6.3-11.1,9.4c-1,0.7-1.5,1.8-1.5,3c0,8.4,0,16.9,0,25.3c2.7,0.7,5.1,1.2,7.2,1.6c0-7.1,0-14.2,0-21.3 c0-1.9-0.3-3.9,1.5-5.4c2.7-2.2,5.4-4.4,7.9-6.7c1.2-1.3,3.2-1.5,4.6-0.6c2.6,1.2,5.3,2.3,8,3.4c4,1.6,4.2,2,0.6,4.5 c-3.8,2.6-4.6,5.7-4.6,10.1c0.2,12.2,0.2,24.4,0.1,36.6c1.9,0.1,4.4,0.2,7.4,0.4c0-10.8,0-21.6-0.2-32.4c-0.1-5.3,1.3-8.9,5.5-12.3 c3.8-3.1,5.9,0.2,8.7,0.8c2.6,0.5,2.2,2.6,2.2,4.4c0,13.4,0,26.9,0,40.3c2.3,0.1,4.7,0.2,7.2,0.2c0-12.4,0-24.9,0-37.4 c0-3.5,0-3.6,3.4-2.2c2.6,1.1,5.2,2.2,7.8,3.3c5.1,2.1,5.1,2.1,5.1,7.6v28.9h7.2c0-10.3,0-20.6-0.1-30.9c0-2.5,0.7-3.9,3.1-4.8 c3.2-1.1,6.4-2.7,9.6-4c3.6-1.5,3.6-1.4,3.6,2.5v36.8c2.5-0.1,5-0.2,7.4-0.4c0-13.6,0-27.2,0-40.8c0-1.3-0.2-2.5,1.2-3.4 c4.8-3,6.8-2.8,11.3,0.7c2.8,2.1,3.7,4.5,3.7,8c-0.1,11.4-0.1,22.7-0.1,34.1c2.6-0.4,5.1-0.8,7.4-1.2c0-11.3,0-22.6,0.2-34 c0.1-5-0.8-8.8-5.2-11.4c-1.1-0.4-1.9-1.3-2.1-2.5c4-1.7,8-3.3,11.9-5c1.3-0.8,3-0.5,4.1,0.6c2.3,2.1,4.6,4.2,7.1,6.1 c1.7,1.2,2.6,3.2,2.4,5.2c0,7.7-0.1,15.5,0,23.2c2.3-0.4,4.7-0.8,7.2-1.3c0-8.7,0-17.4,0-26.1c0.1-1.5-0.6-3-1.8-3.9 c-3.6-3-7.2-6.1-10.8-9.2c-0.7-0.6-1.7-1.2-1.7-2.3c0-7.3,0-14.6,0-21.8c1.1-0.4,1.5,0.2,2,0.6c9.7,8.2,19.4,16.5,29.1,24.7 c1.5,1.2,1.6,2.6,1.6,4.3c0,9.8,0,19.5,0,29.3c2.4-0.6,4.9-1.3,7.3-2c0-10.1,0-20.3,0.1-30.5c0.1-2.1-0.9-4.2-2.7-5.4 c-10.6-8.9-21.1-17.8-31.6-26.8c-2.7-2.3-2.6-2.9,0.4-4.5c3.9-2.1,7.9-4,11.7-6.2c1.1-0.9,2.7-0.7,3.7,0.4 c11.6,9.9,23.1,19.7,34.6,29.4c1.6,1.2,2.5,3.2,2.4,5.2c-0.1,11,0,21.9,0,32.9c2.5-0.8,5-1.6,7.4-2.4c0-11.3,0-22.6,0.1-33.9 C357.2,248.3,356.3,246.3,354.7,245.1 M304.3,156.9c3.2-0.1,3.4,1,2.4,3.6c-3.1,8.1-9.1,13.1-17,16.1c-12.7,4.7-27.5,1.3-36.2-8.6 c-2-2.3-3.5-4.9-4.5-7.8c-1-2.4-0.7-3.4,2.3-3.4c8.8,0.2,17.7,0.1,26.5,0.1l0,0C286.6,156.9,295.4,157.1,304.3,156.9 M295.1,148 c0.7,1.2,0.4,1.7-1,1.7c-10.8,0-21.6,0-32.4,0c-1.2,0-2-0.1-1.1-1.6c5.3-9.4,10.6-18.7,16-28.1c0.4-0.4,0.8-0.8,1.2-1.2 C284.3,128.2,289.4,138.3,295.1,148 M233,90.8c0.3-0.4,0.8-0.7,1.4-0.7c3.8-0.3,7.3,0,10.1,3.1s5.6,6,8.4,9c3.5,3.8,8,5.4,13,5.6 c4.2,0.2,5.6-0.7,6.9-4.8c0.6-2.3,2.5-3.9,4.9-4c2.2-0.2,4.3,1.2,5.1,3.3c0.8,1.6,0.6,3.5-0.5,4.9c-1.1,1.6-2.2,0.4-3.4,0.1 c-2.5-0.6-3.8,1-4.8,2.8c-6.8,11.9-13.6,23.8-20.4,35.6c-0.5,0.9-1.1,1.9-1.6,2.8c-0.8,1.5-2.2,1.2-3.4,1c-1.4-0.2-1-1.4-1.1-2.3 c-0.5-6.9-0.9-13.8-1.3-20.4c0.1-0.5,0.1-1.1,0-1.6c-1.4-5,0.6-8.8,4.5-11.7c1.8-1.3,1.5-2.2-0.3-3.3c-5.1-3.2-10.2-6.5-15.2-9.8 C233.2,99.2,231.7,92.7,233,90.8 M226.8,106.9c1.1-0.8,2.5-0.9,3.7-0.2c2.9,2.1,6.2,3.3,9.1,5.2c1.2,0.8,1.8,1.6,0.3,2.7 c-1.6,1.2-1.3,2.8-1.2,4.4c1.3,23.9,2.6,47.8,3.9,71.7c0.1,1.5,0.9,2.9,2.1,3.7c2.8,2.4,5.5,4.7,8.8,7.5c-4.2,0.5-44.8,0.5-48,0 c2-2.7,4.7-4.5,7.1-6.4c2.2-1.6,3.4-4.1,3.4-6.8c1.1-23.2,2.5-46.5,3.8-69.7c0.1-1.3,0.5-2.7-0.6-3.7c-2-1.9-1.3-2.9,0.8-4 C222.3,109.9,224.5,108.3,226.8,106.9 M248.3,209.6c0.1,1.2-1,1.2-1.6,1.5c-5.1,2.9-10.2,5.7-15.3,8.4c-1,0.5-2,1.3-3.3,0.6 c-6.1-3.4-12.2-6.7-18.2-10.1l0.1-0.5L248.3,209.6z M178,99.7c2.4-1.4,5.6-0.7,7.1,1.8c1.3,2.4,1.2,6.1,5.1,6.3 c5.3,0.3,10.4-0.5,14.4-4.5c3.1-3.1,6-6.5,9.1-9.6c1.9-2,4-3.5,7-3.5c6.2,0.1,4.9-0.4,5.1,5.5c0.8,2.5-0.8,4.1-3.3,5.6 c-4.7,2.8-9.2,6-13.9,8.9c-1.9,1.2-2.6,2.3-0.5,3.8c4,3,5,6.8,4.4,11.8c-0.9,6.9-0.9,14-1.3,21c-0.1,1.1,0.7,2.7-1.4,3.1 s-2.9-0.6-3.8-2.2c-6.6-11.7-13.2-23.3-19.9-34.9c-0.7-1.2-1.4-2.4-2.1-3.6c-1.2-2-3-2.8-4.9-1.5s-2.5,0.1-3.1-1.2 C174.7,103.9,175.7,101,178,99.7 M163.4,148.1c5.6-9.9,11.3-19.8,17.2-30.1c4.2,7.2,8.1,14,12,20.8c1.7,2.9,3.3,5.8,4.9,8.7 c0.7,1.3,1.3,2.3-1.1,2.3c-10.6,0-21.1,0-31.7,0C163.7,149.8,162.3,149.9,163.4,148.1 M151.5,157.8c0.9-1.9,3.9-0.7,5.9-0.8 c7.8-0.1,15.5,0,23.3,0c8.8,0,17.7,0.1,26.5-0.1c3-0.1,3.2,1,2.3,3.4c-4.1,10.6-12.4,15.9-23.1,17.9c-13.1,2.4-26.5-3.3-32.8-13.8 C152.4,162.3,150.5,159.9,151.5,157.8 M167.8,220.4c-5.1-2.8-10.3-5.5-15.4-8.2c-1-0.5-1.9-0.9-1.9-2.3c0-12.1,0-24.1,0-37 c8.4,8.8,18.1,12.8,29.2,13.1s20.9-3.5,29.7-11.8c-0.3,5.4-0.5,10-0.8,14.5c0,1-0.9,1.4-1.6,1.9c-11.4,9.7-22.8,19.4-34.2,29.2 C171.2,221.3,169.8,221.5,167.8,220.4 M195.2,262.3c-1.9,1.6-3.4,2-5.8,0.9c-4-1.9-8.1-3.6-12.2-5.2c-2.2-0.8-2.9-2.1-2.8-4.4 c0.1-4,0-8,0-12c0.2-2,0.2-4.1,0-6.1c-0.9-5.6,1.2-9.5,5.8-12.8c4.4-3.1,8.3-6.9,12.4-10.4c1.6-1.5,3-1.8,5.1-0.6 c8.3,4.8,16.8,9.4,25.2,13.9c2,1,2.5,2.4,2.7,4.6c0.5,4.6-1.4,7.5-4.9,10.3C212.2,247.5,203.7,255,195.2,262.3 M238.8,276.2 c-6.8,3.7-12.9,3.4-19.6-0.3c-5.9-3.2-12.4-5.4-19.1-8.2c7.1-6,13.8-11.8,20.5-17.5c2.4-2,4.8-4,7.1-6.1c0.8-0.7,1.5-1.2,2.5-0.4 l28.1,23.9C251.5,270.6,244.9,272.9,238.8,276.2 M281.7,257.8c-4.5,1.8-8.9,3.7-13.4,5.7c-1.4,0.8-3.2,0.6-4.4-0.6 c-9.8-8.4-19.7-16.8-29.4-25.2c-3.2-2.7-2.3-10.1,1.2-12.1c8.4-4.6,16.8-9.2,25.2-13.9c1.8-1,3-1,4.5,0.4 c5.5,4.9,11.1,9.6,16.7,14.3c1.2,0.9,1.9,2.4,1.8,3.9c-0.1,4,0,8,0,12s-0.1,8.2,0,12.3C284.1,256,283.2,257.4,281.7,257.8  M306.1,212.2c-5.4,2.9-10.9,5.7-16.3,8.7c-1.1,0.7-2.6,0.5-3.5-0.5c-11.8-10.1-23.6-20.1-35.5-30.2c-0.7-0.4-1.1-1.1-1.1-1.9v-13.2 c19.4,15,38.7,14.6,58.2-1.7c0,12.1,0,23.9,0,35.6c0.1,1.3-0.7,2.5-1.9,3"></path><path class="st2" d="M153.8,95.3c21.6-11.3,43-22.9,64.6-34.3c1.7-0.7,2.8-2.4,2.6-4.3c-0.1-8.4-0.1-16.8-0.1-25.3 c0-4.1,0-4-3.6-2.1c-30.6,16.4-61.3,32.8-91.9,49.1c-2,0.8-3.2,2.8-3,4.9c0.1,36.2,0,72.3,0.2,108.5c0.1,2.8-1.1,5.4-3.4,7.1 c-5.4,4.5-10.7,9.1-16,13.6c-0.8,0.7-1.8,1.2-1.8,2.5c0,2.6,0,5.1,0,7.7c1.4,0.1,2-0.8,2.7-1.4c7.7-6.6,15.4-13.2,23.2-19.7 c1.7-1.3,2.6-3.4,2.5-5.5c-0.1-36.2,0-72.3-0.1-108.5c0-2.3,0.7-3.7,2.8-4.8c8.1-4.1,16-8.5,24-12.7c18.1-9.7,36.1-19.4,54.2-29.1 c2.5-1.3,3-0.5,2.9,1.9c-0.2,2.9-0.2,5.8,0,8.7c0.2,2.7-0.8,4-3.1,5.2c-21.6,11.4-43,23-64.5,34.4c-1.8,0.7-2.9,2.6-2.7,4.5 c0.1,10.1,0.2,20.3,0,30.4c-0.1,3.3,1.7,3,3.8,3s3.6,0.1,3.6-2.9c-0.2-8.5,0-17.1-0.1-25.6C150.4,97.9,151.5,96.6,153.8,95.3"></path><path class="st0" d="M102.1,356.3c2.5-12,13.7-21.9,26.3-19.6s19,15.7,17.6,27.7c-1.7,12.9-13.5,22-26.4,20.4 C106.1,382.9,99.6,368.2,102.1,356.3 M136.7,362.9c1.3-8.3-2.9-15.7-10-17s-13.7,4.1-15.4,12.3s2.5,15.9,10,17.2 C128.8,376.9,135.4,371.2,136.7,362.9 M119.8,325.3c0.6-2.7,2.9-4.6,5.2-4.1s3.7,3,3.2,5.8s-2.9,4.6-5.2,4.1S119.3,328,119.8,325.3  M132,327.7c0.5-2.7,2.8-4.6,5.1-4.2s3.8,3,3.4,5.7s-2.8,4.7-5.1,4.3S131.5,330.4,132,327.7"></path><path class="st0" d="M172.4,353c0,0,0-0.1,0-0.1c-7.1-0.7-10.6-1.1-17.7-2.1l1.2-9c10.7,1.3,21.4,2.4,32.1,3.3v0.1 c-7.5,12.2-15.3,24.2-23.4,36.1l0.1,0.1c8,0.9,12,1.2,20,1.8c-0.3,3.6-0.4,5.5-0.7,9.1c-12.1-0.9-24.2-2.2-36.2-3.8c0,0,0-0.1,0-0.1 C156.2,376.8,164.5,365,172.4,353"></path><path class="st0" d="M209.2,346.2c3.5,0.1,5.2,0.2,8.7,0.2c5.3,16,10.9,31.9,17,47.5c-4.2,0-6.2,0-10.4,0c-1.4-4-2.1-6-3.4-10 c-7-0.1-10.5-0.2-17.6-0.5c-1.6,3.9-2.4,5.9-4,9.8c-4-0.2-6-0.3-10-0.6C196.5,377.4,203.1,361.9,209.2,346.2 M206.8,375.5 c4.6,0.2,6.9,0.2,11.6,0.3c-0.7-2.1-1-3.2-1.7-5.4c-1.1-3.8-2.6-8.5-3.5-12.1H213c-1.2,3.6-2.9,8.2-4.4,12.2 C207.9,372.5,207.6,373.5,206.8,375.5"></path><path class="st0" d="M246.5,355.4c-5.4,0.2-8,0.2-13.4,0.2c0-3.6,0-5.5-0.1-9.1c11.8-0.1,23.6-0.5,35.3-1.4c0.2,3.6,0.4,5.5,0.6,9.1 c-5.4,0.4-8,0.5-13.4,0.8l1.8,38.3c-3.9,0.2-5.8,0.2-9.7,0.4L246.5,355.4"></path><path class="st0" d="M283.4,344c3.5-0.3,5.2-0.5,8.6-0.9c7.3,15.1,15,30.1,23.2,44.9c-4.1,0.6-6.2,0.9-10.3,1.4 c-1.9-3.8-2.9-5.7-4.7-9.5c-7,0.8-10.5,1.2-17.5,1.8c-1.1,4.1-1.6,6.1-2.7,10.2c-4,0.3-6,0.5-10,0.8 C275,376.6,279.5,360.4,283.4,344 M284.9,373.3c4.6-0.4,6.9-0.7,11.5-1.2c-1-2-1.4-3-2.4-5.1c-1.6-3.6-3.7-8.1-5.1-11.6h-0.1 c-0.7,3.7-1.7,8.5-2.7,12.7C285.7,370.2,285.4,371.2,284.9,373.3"></path><path class="st0" d="M336,365.1c-3.5-3.5-6.8-7-10-10.7l-0.1,0.1c0.8,4.5,1.6,9,2.4,13.5c1.2,7,1.8,10.4,3,17.4 c-3.7,0.6-5.6,0.9-9.3,1.5l-7.3-46.9c3.4-0.5,5-0.8,8.4-1.4c6.1,6.7,9.3,10,15.7,16.6c3.5,3.5,6.8,6.9,10.3,10.4l0.1-0.1 c-1-4.4-2-8.9-2.9-13.4c-1.4-6.9-2.1-10.4-3.6-17.3c3.4-0.7,5.1-1.1,8.5-1.8l10.4,46.3c-3.6,0.8-5.4,1.2-9,1.9 C345.9,375,342.5,371.7,336,365.1"></path><polygon class="st0" points="114.9,440.9 114.9,420.5 117.5,420.5 117.5,429.1 128.6,429.1 128.6,420.5 131.2,420.5 131.2,440.9  128.6,440.9 128.6,431.5 117.5,431.5 117.5,440.9 "></polygon><path class="st0" d="M138.1,438c-0.9-1.4-1.4-3.6-1.4-6.7v-10.8h2.7V431c-0.1,1.8,0.1,3.6,0.8,5.2c0.9,1.6,2.5,2.4,4.8,2.4 s3.9-0.8,4.8-2.4c0.6-1.6,0.9-3.4,0.8-5.1v-10.6h2.6V431c0,1.4-0.1,2.8-0.3,4.1c-0.2,1-0.5,2-1.1,2.9c-0.7,1-1.6,1.8-2.8,2.3 c-1.3,0.6-2.7,0.9-4.1,0.8c-1.4,0-2.8-0.3-4.1-0.8C139.7,439.8,138.8,439,138.1,438"></path><polygon class="st0" points="158.6,440.9 158.6,420.5 161.3,420.5 161.3,429.8 161.3,429.8 170.2,420.5 173.5,420.5 164.4,430  174.3,440.9 170.8,440.9 161.3,430.4 161.3,430.4 161.3,440.9 "></polygon><path class="st0" d="M178.5,438c-0.9-1.4-1.4-3.6-1.4-6.7v-10.8h2.7V431c-0.1,1.8,0.1,3.6,0.8,5.2c0.9,1.6,2.5,2.4,4.8,2.4 s3.9-0.8,4.8-2.4c0.6-1.6,0.9-3.4,0.8-5.1v-10.6h2.6V431c0,1.4-0.1,2.8-0.3,4.1c-0.2,1-0.5,2-1.1,2.9c-0.7,1-1.6,1.8-2.8,2.3 c-1.3,0.6-2.7,0.9-4.1,0.8c-1.4,0-2.8-0.3-4.1-0.8C180.1,439.8,179.2,439,178.5,438"></path><polygon class="st0" points="199,440.9 199,420.5 201.7,420.5 201.7,429.8 201.7,429.8 210.6,420.5 213.9,420.5 204.8,430  214.7,440.9 211.2,440.9 201.7,430.4 201.7,430.4 201.7,440.9 "></polygon><path class="st0" d="M225.7,440.9v-20.3h5.4c1.9-0.1,3.7,0.2,5.4,1.1c1.5,0.8,2.4,2.4,2.4,4.1c0,1-0.3,1.9-0.9,2.7 c-0.6,0.7-1.4,1.3-2.2,1.6v0c1.1,0.2,2.1,0.8,2.9,1.6c0.7,0.9,1.1,2,1,3.1c0.1,1.9-0.8,3.6-2.3,4.7c-1.3,0.9-3.4,1.3-6.3,1.3H225.7z  M228.4,429.4h4c1,0,2-0.2,2.8-0.8c0.8-0.5,1.2-1.4,1.1-2.4c0-1.1-0.5-2.1-1.4-2.6c-1.3-0.6-2.7-0.8-4.1-0.7h-2.4L228.4,429.4z  M228.4,438.4h2.9c2.2,0,3.7-0.3,4.5-0.9c0.9-0.6,1.4-1.6,1.3-2.7c0-1-0.4-2-1.2-2.6c-1.1-0.6-2.3-1-3.6-0.9h-3.9L228.4,438.4z"></path><path class="st0" d="M245.8,438c-0.9-1.4-1.3-3.6-1.4-6.7v-10.8h2.7V431c-0.1,1.8,0.1,3.6,0.8,5.2c0.9,1.6,2.5,2.4,4.8,2.4 s3.9-0.8,4.8-2.4c0.6-1.6,0.9-3.4,0.8-5.1v-10.6h2.6V431c0,1.4-0.1,2.8-0.3,4.1c-0.2,1-0.5,2-1.1,2.9c-0.7,1-1.6,1.8-2.8,2.3 c-1.3,0.6-2.7,0.9-4.1,0.8c-1.4,0-2.8-0.3-4.1-0.8C247.4,439.8,246.5,439,245.8,438 M248.8,417.4c-0.3-0.3-0.5-0.7-0.4-1.1 c0-0.9,0.7-1.5,1.5-1.5l0,0c0.4,0,0.8,0.2,1.1,0.5c0.3,0.3,0.5,0.7,0.4,1.1c0,0.9-0.7,1.5-1.5,1.5l0,0 C249.5,417.8,249.1,417.7,248.8,417.4 M254.3,417.4c-0.3-0.3-0.5-0.7-0.4-1.1c0-0.4,0.2-0.8,0.4-1.1c0.3-0.3,0.7-0.5,1.1-0.5 c0.9,0,1.5,0.7,1.5,1.5c0,0,0,0,0,0c0,0.4-0.2,0.8-0.5,1.1c-0.3,0.3-0.7,0.5-1.1,0.5C255,417.8,254.6,417.7,254.3,417.4"></path><path class="st0" d="M266.3,440.9v-20.3h5.5c1.9-0.1,3.9,0.2,5.7,1c1.8,0.9,2.9,2.7,2.8,4.7c0.1,2-0.9,3.8-2.6,4.8 c-0.7,0.4-1.5,0.7-2.3,0.8l6.5,9h-3.2l-6.2-8.7H269v8.7L266.3,440.9z M269,430h3.5c1.4,0.1,2.8-0.2,4-0.9c0.8-0.6,1.2-1.5,1.2-2.5 c0.1-1.2-0.6-2.3-1.6-2.9c-1.4-0.5-2.9-0.8-4.4-0.7H269V430z"></path><path class="st0" d="M287.5,438.1c-3.9-4.2-3.9-10.7,0-14.9c4.1-4,10.6-4,14.7,0c3.9,4.2,3.9,10.7,0,14.9 C298.1,442.2,291.5,442.2,287.5,438.1 M289.3,425c-2.9,3.2-2.9,8.1,0,11.4c2.9,3,7.8,3.1,10.8,0.2c0.1-0.1,0.1-0.1,0.2-0.2 c2.9-3.2,2.9-8.1,0-11.4c-3-3-7.8-3.1-10.8-0.2C289.4,424.9,289.4,424.9,289.3,425"></path><path class="st0" d="M309.2,439.6v-2.9c0.9,0.7,1.9,1.2,3,1.5c1,0.3,2,0.5,3.1,0.5c1.1,0.1,2.1-0.2,3-0.9c0.8-0.6,1.2-1.5,1.1-2.5 c0-0.5-0.1-1-0.3-1.5c-0.2-0.4-0.6-0.8-1.1-1c-0.4-0.2-0.9-0.4-1.3-0.6c-0.4-0.1-1-0.3-1.8-0.5l-0.2-0.1h-0.2l-0.2-0.1 c-0.7-0.2-1.4-0.4-2.1-0.7c-0.6-0.3-1.2-0.6-1.7-1c-0.6-0.4-1-1-1.3-1.6c-0.3-0.7-0.5-1.5-0.4-2.3c-0.1-1.6,0.6-3.1,1.8-4.2 c1.4-1.1,3.1-1.6,4.8-1.5c2-0.1,4.1,0.5,5.8,1.5v2.8c-1.7-1.2-3.8-1.9-5.9-1.9c-1-0.1-2,0.2-2.8,0.8c-0.9,0.7-1.3,1.9-1,3 c0,0.2,0.1,0.4,0.2,0.6c0.1,0.2,0.2,0.4,0.3,0.5l0.4,0.4c0.2,0.1,0.3,0.3,0.5,0.3l0.6,0.3c0.2,0.1,0.4,0.2,0.7,0.2l0.7,0.2l0.7,0.2 l0.7,0.2c0.6,0.2,1.2,0.3,1.8,0.6c0.5,0.2,1.1,0.5,1.6,0.8c0.5,0.3,0.9,0.6,1.3,1.1c0.4,0.4,0.7,0.9,0.9,1.5c0.2,0.6,0.4,1.3,0.4,2 c0.1,1.6-0.6,3.2-1.9,4.3c-1.4,1.1-3.2,1.7-4.9,1.6C313.1,441.3,311.1,440.7,309.2,439.6"></path><path class="st0" d="M327.7,438c-0.9-1.4-1.4-3.6-1.4-6.7v-10.8h2.7V431c-0.1,1.8,0.1,3.6,0.8,5.2c0.9,1.6,2.5,2.4,4.8,2.4 s3.9-0.8,4.8-2.4c0.6-1.6,0.9-3.4,0.8-5.1v-10.6h2.6V431c0,1.4-0.1,2.8-0.3,4.1c-0.1,1-0.5,2-1.1,2.9c-0.7,1-1.6,1.8-2.8,2.3 c-1.3,0.6-2.7,0.9-4.1,0.8c-1.4,0-2.8-0.3-4.1-0.8C329.3,439.8,328.4,439,327.7,438"></path><path class="st2" d="M342.4,457.5H116.2c0-3.5,2.8-6.3,6.3-6.3h213.6C339.6,451.3,342.4,454.1,342.4,457.5"></path><path class="st0" d="M90.5,473.7h5l9.5,23.5h-5.5l-1.9-4.9h-9.5l-1.9,4.9h-5.3L90.5,473.7z M89.7,488.2h6.3l-1-2.6 c-0.7-1.9-1.5-4.2-2.1-6h-0.1c-0.6,1.8-1.5,4.1-2.2,6.1L89.7,488.2z"></path><path class="st0" d="M103.5,473.7h5.6l3.8,10.3c0.8,2.1,1.6,4.3,2.3,6.4h0.1c0.8-2.1,1.5-4.2,2.3-6.4l3.9-10.3h5.3l-9,23.5h-5.2 L103.5,473.7z"></path><path class="st0" d="M129.9,491.7c1.6,0,2.9,1.4,2.9,3c0,1.6-1.4,2.9-3,2.9c-1.6,0-2.9-1.3-2.9-2.9 C126.9,493,128.2,491.7,129.9,491.7L129.9,491.7z"></path><polygon class="st0" points="147.4,473.7 161.9,473.7 161.9,478.2 152.6,478.2 152.6,482.8 160.6,482.8 160.6,487.1 152.6,487.1  152.6,492.7 162.3,492.7 162.3,497.2 147.4,497.2 "></polygon><path class="st0" d="M166.8,490.7c2.2,1.4,4.7,2.2,7.4,2.3c1.9,0,3.3-0.7,3.3-2.5c0-2.2-2.2-2.4-5.2-3.3c-3.2-1.1-6.2-2.7-6.2-6.8 c0-4.4,3.3-7.1,8.2-7.1c2.5,0,4.9,0.6,7.2,1.7v5.1c-2.2-1.4-4.7-2.1-7.2-2.3c-1.8,0-3,0.6-3,2.2c0,2.1,2.2,2.2,5,3.2 c3.5,1.2,6.4,2.8,6.4,7c0,4.6-3.5,7.3-8.5,7.3c-2.5,0-5-0.6-7.3-1.7L166.8,490.7z"></path><path class="st0" d="M187.1,473.7h5.2v23.5h-5.2V473.7z M187.1,468.6c0-1.4,1.1-2.5,2.5-2.5c1.4,0,2.5,1.1,2.5,2.5 c0,1.4-1.1,2.5-2.5,2.5C188.2,471.1,187.1,470,187.1,468.6L187.1,468.6z"></path><path class="st0" d="M207.3,487.7c-1.5-2-2.9-4-4.4-6.1h-0.1c0,2.2,0.1,4.5,0.1,6.8v8.7h-5v-23.5h4.9l7.1,9.5c1.5,2,2.9,4,4.4,6.1 h0.1c0-2.2-0.1-4.5-0.1-6.8v-8.8h5v23.5h-4.9L207.3,487.7z"></path><path class="st0" d="M232.9,485.5c-0.1-6.8,5.3-12.4,12.1-12.4s12.4,5.3,12.4,12.1c0.1,6.8-5.3,12.4-12.1,12.4c-0.1,0-0.1,0-0.2,0 c-6.6,0.2-12.1-5.1-12.3-11.7C232.9,485.7,232.9,485.6,232.9,485.5L232.9,485.5z M252.2,485.5c-0.2-3.9-3.5-7-7.4-6.8 c-3.9,0.2-7,3.5-6.8,7.4c0.2,3.8,3.3,6.8,7.1,6.8c4,0,7.1-3.3,7.1-7.2C252.3,485.6,252.3,485.5,252.2,485.5L252.2,485.5z M239,468.6 c0-1.4,1.1-2.5,2.5-2.5c1.4,0,2.5,1.1,2.5,2.5c0,1.4-1.1,2.5-2.5,2.5C240.1,471.1,239,470,239,468.6L239,468.6z M246.3,468.6 c0-1.4,1.1-2.5,2.5-2.5c1.4,0,2.5,1.1,2.5,2.5s-1.1,2.5-2.5,2.5c0,0,0,0,0,0C247.4,471.1,246.3,470,246.3,468.6L246.3,468.6z"></path><polygon class="st0" points="271.3,478.3 271.2,478.2 261.2,478.2 261.2,473.7 279.8,473.7 279.8,473.8 268.6,492.6 268.7,492.7  279.5,492.7 279.5,497.2 260.2,497.2 260.1,497.2 "></polygon><path class="st0" d="M292,473.7h5l9.5,23.5H301l-1.9-4.9h-9.5l-1.9,4.9h-5.3L292,473.7z M291.3,488.2h6.3l-1-2.6 c-0.7-1.9-1.5-4.2-2.1-6h-0.1c-0.6,1.8-1.5,4.1-2.2,6.1L291.3,488.2z"></path><polygon class="st0" points="313.3,478.2 305.7,478.2 305.7,473.7 326.1,473.7 326.1,478.2 318.5,478.2 318.5,497.2 313.3,497.2 "></polygon><path class="st0" d="M334.8,473.7h5l9.5,23.5h-5.5l-1.9-4.9h-9.5l-1.9,4.9h-5.3L334.8,473.7z M334,488.2h6.3l-1-2.6 c-0.7-1.9-1.5-4.2-2.1-6h-0.1c-0.6,1.8-1.5,4.1-2.2,6.1L334,488.2z"></path><path class="st0" d="M362.3,487.7c-1.5-2-3-4-4.4-6.1h-0.1c0,2.2,0.1,4.5,0.1,6.8v8.7h-5v-23.5h4.9l7,9.5c1.5,2,3,4,4.4,6.1h0.1 c0-2.2-0.1-4.5-0.1-6.8v-8.8h5v23.5h-4.9L362.3,487.7z"></path></svg>