<?xml version="1.0" encoding="utf-8"?>
<!-- Generator: Adobe Illustrator 26.5.0, SVG Export Plug-In . SVG Version: 6.00 Build 0)  -->
<svg version="1.1" id="katman_1" xmlns="http://www.w3.org/2000/svg" xmlns:xlink="http://www.w3.org/1999/xlink" x="0px" y="0px"
	 viewBox="0 0 278.6 341.9" style="enable-background:new 0 0 278.6 841.9;" xml:space="preserve">
<style type="text/css">
	.st0{fill:#8F8F8F;}
</style>
<g>
	<path class="st0" d="M278.6,401.6c-4.7,1.4-7.3,5.9-11.8,7.8c-5.5,2.3-11.2,3.6-17,4.3c-13.7,1.7-27.5,1-41.3,1.2
		c-10.5,0.2-20.8-1.1-31.1-3.4c-1.1-0.2-2.5-1.5-3.5,0c-0.8,1.1-0.2,2.5,0.3,3.7c2.7,6.4,5.2,13,8.1,19.3c2,4.3,5.1,7.8,9.2,10.1
		c4.5,2.5,5.7,7.2,2.3,11.3c-6,7.1-14.2,9.8-22.8,10.8c-13.8,1.7-27.8,2.8-41.7,2.2c-5-0.2-6.2,1.9-5.5,6.1
		c2.8,18.4,2.1,37.3,7.9,55.3c1.3,3.9,1.9,8.3,1.9,12.4c-0.1,10.7,2,21.2,1.3,31.9c-0.1,1.6-0.1,3.3,0.2,5c1.5,8.4,1.6,8.3,9.2,4.6
		c7.5-3.7,13.2-2.1,19.4,6c5,6.5,8.4,13.9,9.7,22c1.4,8.6-1.8,16-7.7,22.1c-8.1,8.3-16.1,16.4-21.3,27.2c-3.8,7.9-12.3,11.6-20.9,13
		c-5.7,1-7.9,2.8-7.7,9c0.2,7.4-0.9,15-2.3,22.3c-2.7,14,3.2,26.3,7.4,38.9c1,3,4.4,4.7,7,6.8c4.9,3.9,10.3,8.4,8.6,15.5
		c-1.9,7.9-3.7,16.5-13.8,18.8c-6.2,1.4-19.2-4.4-24-11c-0.4-0.6-0.7-1.3-1.2-1.9c-2.2-3.3-3.8-7.9-6.9-9.7
		c-3.9-2.2-6.5,3.4-10.3,4.6c-6.7,2.3-12.3,0.3-17.6-3.4c-4.4-3.1-9-5.8-14.3-6.6c-2.5-0.4-3.8-0.3-3.4,3.3
		c1.2,12,3.5,23.9,5.4,35.8c0.5,2.9,0.4,5.9,0.4,8.8c0.1,6.6,0.1,13.2,1,19.8c0.8,6-0.4,11.4-6.7,14.3c-0.5,0.2-0.6,1.2-0.9,1.9
		c-7,0-14,0-21,0c-5.2-5.6-10.6-11.2-10.9-19.4c-0.2-7.1-0.5-14.2,0.5-21.4c1-7.1,2.8-8.1,0.6-12.3c-3,5.7-6.1,11.3-13.5,12.1
		c0-2.6,0-5.2,0-7.7c3.6-0.8,6.1-3.4,6.1-6.7c0-3-3.3-3.8-6.1-4.4c0-1.5,0-3,0-4.4c0.7,0.2,1.4,0.3,2.1,0.6c2,1.1,4.5,4.2,5.8,3
		c2.4-2.1-2-3.4-2.3-5.7c-0.2-1.9-1-3.9-1.8-5.7c-1.1-2.3-0.4-5.7-3.8-6.6c0-8.9,0-17.7,0-26.6c3,0.4,2.6,3.2,3.3,5.1
		c2.7,7.6,5.2,15.2,7.8,22.8c1.1-1.2,1.2-2.1,1.1-3c-2.5-11.2-6.5-22-10.3-32.8c-0.2-0.5-1.2-0.6-1.8-1c0-8.1,0-16.2,0-24.3
		c1.2,0.1,1.8,0.8,2.2,2c5.3,16.6,11.3,33.1,15.7,49.9c3.3,12.7,7.4,25.3,3.6,39.4c-3.3,12.2-7.2,26,4.8,36.8c1.1-1-0.9-3.7,1.6-4.8
		c1.6,2-0.1,4.9,2.1,7.3c1-3.1,1.9-5.7,2.8-8.5c2.1,1.5,1.2,3.3,1.4,4.8c0.2,1.4-0.4,3.5,1.8,3.3c2-0.1,1.4-2.2,1.5-3.6
		c0.4-2.9-0.8-6,1-9.2c1.8,2.6,0.8,4.8,1.2,6.9c0.3,1.7-1.2,4.8,2,4.7c2.7-0.1,4.1-2.6,3.2-5.3c-0.9-2.7-0.7-5.4-0.8-8.2
		c-0.4-7.3-0.5-14.7-1.5-21.9c-2-14.1-5-28.1-7.8-42c-5.1-25.1-8.4-50.5-12.8-75.7c-2.5-14.2-10.6-23.2-22.2-30.1
		c0-5.2,0-10.3,0-15.5c3.8,0.4,4.4,4.1,6.6,6.2c6.1,5.8,12.4,11.7,17.6,18.2c9.1,11.4,12.6,25.1,14.5,39.3c0.2,1.2-0.8,3.4,1.8,2.9
		c1-0.2,1.9-1.4,2.4,0.4c0.3,0.9,0,1.8-0.9,2.4c-4.4,3.2-1.8,7-1.8,11.7c2.8-2.8,0.7-5.8,3.8-8.3c-0.1,12.2,2.7,23.4,1,34.6
		c-1,6.8,3.6,6.2,6.9,7.4c4.6,1.6,4-2.3,4.7-5.1c0.8-3.1,0.8-6.2,0.8-9.3c0-6.2,0-12.3,0-18.5c4.5,9.6,6.5,19.8,7.7,30.1
		c0.6,5.1,3,6.8,7.7,4.6c2-1,3.6-0.8,5.7-0.7c2.4,0.1,7,1.2,6.8-3.4c-0.4-9.2-2.8-18.2-3.1-27.5c-0.4-10.8-5.6-20.7-12-29.7
		c-6.3-8.8-11.7-18-14.1-29c-2.5-11.6-2.9-23.2-1.9-34.8c1-10.6,5.6-19.7,13.8-26.8c8.4-7.2,17.3-13.6,27.6-18
		c2.6-1.1,6.1-2.3,6.8-5.2c2.8-10.8,6.5-21.6,6.8-32.8c0.6-23.4,0.1-46.8,0.2-70.2c0-3.5-1.4-5.1-4.7-5.4c-1.8-0.2-3.6-0.6-5.4-0.9
		c-2.6-0.5-4.6,0.1-5.8,2.8C89.4,478,83.5,486.2,77,494c-5,6.1-11,11.2-17.7,16c-0.6-1.9,0.2-2.4,0.8-3.1
		c9.6-12.3,18.5-25.1,26-38.8c1-1.8,3.7-4.3,0.8-6.3c-2.6-1.8-4.6-6.1-9.1-3.1c1-6-0.8-12.5,5.9-15.8c0.6-0.3,0.9-1.6,1.2-2.4
		c2.3-6.6,4.7-13.2,6.9-19.8c1.8-5.4,3.4-10.9,5.1-16.4c0.4,0.1,0.9,0.2,1.3,0.4c-1.9,11.2-6,21.9-9.4,33.4c2.8-1.4,2.8-3.4,3.4-5
		c3.6-10.8,6.5-22,11.1-32.3c3.9-8.8,1.7-17.2,1.2-25.8c-0.2-3.9-2.2-4.6-6-3.8c-6.1,1.4-12.5,2.2-19.9,3.4c3.6-3.4,8.1-2,11.3-5.8
		c-11.8,2-22.5,3.7-33.5,4.6c-18.9,1.5-37.7,1-56.4-2.6c0-1.5,0-3,0-4.4c13,2,26.1,3.1,39.3,3.4c5.4,0.1,10.6-1,15.9-1.2
		c16-0.7,31.6-3.2,46.8-8.4c1.8-0.6,4.8-0.8,3.8-3.5c-1-2.7-3.4-0.9-5.2-0.3c-16.9,5.4-34.2,7.3-51.8,7.9
		c-16.3,0.5-32.6-0.4-48.7-3.3c0-2.6,0-5.2,0-7.7c2.2,0.2,3.9-0.8,5.7-1.8c15.9-8.6,27-22.4,38.4-35.8c4.8-5.6,8.9-11.7,13.3-17.5
		c0.5,0.4,1,0.9,1.5,1.3c-10.4,25.7-26.3,46.3-53.7,56.3c0.7,1.4,2,1.7,3.2,1.8c19.5,2.9,39,2.9,58.6,1.2c1.5-0.1,2.4-0.7,2.6-2.2
		c0.7,0,1.5,0,2.2,0c0.9,1.2,2.3,1.3,3.5,1c8.8-1.9,17.5-3.7,26.2-6.1c2.6-0.7,5.9-1.3,7.5-4.2c4.5-8.4,7.7-17.1,7-26.8
		c-0.1-1.9-0.4-3.9-2.4-4.5c-2.1-0.6-2.6,1.5-3.6,2.8c-3.8,4.5-7,9.5-11.5,13.4c-2.2-2,2.2-3.3-0.4-5.2c-4.4,4-9,8-14,11.3
		c-5.1,3.4-10.4,6.3-16.2,8.2c-5.5,1.7-11,3.9-17,3.1c2.8-2,5.7-3.5,8.7-4.9c18.7-9.2,34.7-21.9,48.8-37.2c1-1.1,2.1-2.1,2.1-3.7
		c0.3-10.5-0.9-21.1,2.5-32.2c-4.3,1.4-6.1,4.9-10,5.1c0.7-3,3.1-4.1,4.5-5.9c5.8-7.3,12.6-14.1,13.6-24
		c1.1-10.8,3.7-20.9,10.8-29.5c0.6-0.7,0.5-2.1,0.7-3.2c4.4,0.3,5.6-1.2,2.6-4.9c-5.5-6.6-8.4-14-6.5-23.6c0.7,1.5,1.2,2.4,1.6,3.3
		c2.4,5.8,4.1,11.8,7.2,17.3c0.9,1.6,2.1,3,3.9,2c2.2-1.3,0.5-2.8-0.5-4c-4.7-6.1-6.8-12.9-6.2-20.6c0.2-1.9,0.9-5.3-2.7-4.6
		c-2.6,0.5-6.9-0.4-7.2,4.3c-0.6,9.1,0.1,18,5.5,25.9c1.1,1.5,2.1,3,2.2,5c-0.8-0.3-2-0.4-2.5-1c-4-4.9-7.7-3.4-12.5-0.6
		c-9.6,5.7-17.7,13-26.1,20.1c-1.7,1.4-4.7,2.1-5.1,6c4.9-2.8,9.1-5.3,14.5-8.5c-3.2,7.3-10.5,8.6-14.1,15
		c7.6-2.3,12.8-6.5,18.7-9.2c-9.3,10.4-21.6,15.5-36,20c5.2,2.1,8.8,2.6,12.7,2.4c1.5-0.1,3.4,0.1,3.3,2c-0.1,1.8-2,1.2-3.1,1.2
		c-3.7,0.1-7.4-0.1-11.1,0.1c-3.6,0.2-9.7-1.5-10.2,0.8c-1,4.2,4.5,6.5,7.3,9.4c2.6,2.8,6.9,3.5,10.3,7.2c-6.5-1.1-11.3-3.5-17.5-7
		c5.4,16.5,14.5,27.6,29.9,33.1c-18-1-28.5-12.4-37.5-27c-6.5,18.8-14.9,35.3-34.4,42.5c13.3-9.3,20.7-22.2,23.7-38.8
		c-7.5,4.5-14.4,8.6-21.4,12.7c-0.8-2,0.7-2.6,1.4-3.5c4.3-5.2,10-8.6,15.7-12.1c4.9-3,6.5-7.1,6.5-12.4c0-3.7-0.5-5.2-5-4.3
		c-14,3-27.8,6.6-40.4,13.8c0-2.2,0-4.4,0-6.6c5.5-0.4,9.6-4.3,14.8-5.6c7-1.7,13.8-3.8,22.3-6.2c-10.9-2.9-18.7-8.3-26.5-13.7
		c-4-2.8-6-7.8-10.7-9.8c0-2.2,0-4.4,0-6.6c1.2,0.1,2.1,0.5,2.8,1.4c9.5,12.2,22,20.3,36,26.4c2.5,1.1,4.2,1.3,6.2-1.2
		c2.3-2.9,5.6-4.1,9.4-2.7c2.2,0.8,3.8,0,5.5-1.4c9.1-7.3,16.9-15.7,23.8-25.1c5.3-7.1,9.7-14.7,13-22.9c0.5-1.2,1.1-2.6,0-3.6
		c-1.1-1-1.9,0.4-2.8,0.8c-2.9,1.4-6,2.5-9.1,1.6c-7.1-2.1-13.3-1.4-18.4,4.5c-0.7,0.8-1.7,1.4-2.6,2c-1,0.8-1.7,2.4-3.1,1.8
		c-1.7-0.7-0.9-2.6-1-4c-0.1-5.3-0.1-10.7,0-16c0-2.6-0.6-3.1-3.5-2.9c-8.3,0.4-16.5-1.2-23.9-5.1c-7.2-3.8-7.7-3.7-8,4.7
		c-0.1,1.8,0,3.7,0,5.5c0,1.6,0.4,3.6-1.3,4.5c-8,4.1-14.4,10.8-23,13.9c0-3.3,0-6.6,0-10c3.9-0.5,5.5-4.9,10.2-5
		c2.5,0,6.8-4.2,7.2-6.9c2.8-16.6-5-28.9-17.4-39c0-3,0-5.9,0-8.9c3-0.4,1.9-2.9,2.2-4.6c0.3-1.8-0.5-5,3.3-3.1
		c-2.9,6.3,2.8,10.5,4.1,15.8c0.3,1.2,1.1,3.3,2.9,2.2c1.4-0.8-0.2-2.2-0.5-3.3c-0.8-3.4-5-6.3-1.4-10.6c-1.4,4.7,4,4,4.8,6.8
		c1.2,3.9,2.5,7.7,3.3,11.6c2.9,14.4,11.8,22.6,25.9,25.7c14.7,3.3,26.4-1.6,31.5-14.7c2-5,3.5-10,5.1-15.1c3.6-11.7,2.5-13-9.7-13
		c-8.7,0-8.8,0-6.1,8c1.3,3.8,0.9,7-3,8c-4.6,1.2-9.6,1-14.3-0.6c2.5-1.1,4.8-2.1,7.6-2.2c9.4-0.3,9.4-0.4,6.2-9.3
		c-1-2.9-2.5-4.2-5.6-3.9c-3.3,0.3-6.5,0.3-9.8,0.8c-8.3,1.2-16.7,2.1-24.9-0.7c-3.4-1.2-6.5-2.7-7.3-6.7c6.9,3.4,14,4.2,22.3,2.6
		c-2.8-2.3-6.2-1-8-3.5c3.2-0.2,6.2-0.1,9.4,0.4c11.7,2,23,0,33.9-4.3c1.2-0.5,1-1.9,1-2.9c1.7,0.5,3.5,1.1,5.2,1.5
		c1.4,0.4,3.3,2.6,4.2,0.6c0.9-2,0.5-4.7,0.3-7c-0.2-2-2.1-1.6-3.5-1.8c-5.6-0.5-10.9,0.7-16.2,2.2c-3.5,1-7,2-10.5,3
		c3.6,0,7.1,0.4,10.5,0.3c2.6,0.4,5.4-1,7.8,1.1c-0.4,0.3-0.9,0.9-1.3,0.9c-6.4,0.6-12.8-0.5-19.1,1.2c-0.8,0.2-2.5-0.1-2.2-1
		c1.5-4.2-1.9-2-2.9-2.2c-3.8-0.6-7.7,0.7-12.7-1.5c7.7-1.5,14.4-1.9,20.4-4.7c-9.6-0.7-18.9,1-28.3,2.3c-6.9,1-10,4.9-12.4,10.4
		c-0.6,0-1.1,0-1.7,0c-1.8,0-3.9,0.3-4.7-2c-0.8-2.6,1.8-2.2,3-3.1c1.6-1.3,3-2.7,3.8-4.7c1.5-3.4,3.4-6,7.2-7.7
		c4.9-2.2,4.8-4.5,1.1-8.6c-1.7-1.9-3.7-3.7-3.7-7.4c1.3,1,2.2,1.4,2.7,2c2.9,3.2,7.1,5,10.8,4.2c2.5-0.5,1.8-5.4,2.5-8.3
		c0.1-0.5,0.4-1,0.7-1.9c2.8,1.7,5.7,2.1,8.9,2.1c3.8-0.1,4.1-1.7,2.5-4.5c-1.6-2.8-4.5-4.7-5.3-8.9c4,2,6.8,4.3,9.5,7
		c1,0.9,1.3,3.8,3.6,2c1.5-1.2,1.2-3,0.4-4.6c-1.3-2.2-2.8-4.3-4.1-6.5c-1.3-2-2.6-4.1-1.2-7.2c1,3.6,2.9,6,5.3,8.1
		c3.4,2.9,5.7,6.2,5.1,11c-0.1,1.2-0.3,3,1.4,3.2c5.4,0.7,9,5.5,15,6.7c-4.1-6.2,2.6-2,3-4.3c-0.2-1.7-3.2-1.7-2.9-4.3
		c2.8,0.5,5.7,1.3,8.6,1.1c2.6-0.2,2.9,2.1,3.2,3.7c0.4,2-1.6,2.2-2.9,2.7c-1.9,0.7-4.3-0.6-6.5,1.6c3.3,1.1,5.9,1.2,8.4-0.1
		c3.9-2.1,4.3,0.4,3.5,3.1c-1.3,4.2-0.6,8.4-0.8,12.6c-0.1,1.1,0,2.4,1.4,2.6c0.8,0.1,1.8-0.4,2.4-0.9c3.2-2.6,4-10.9,2.9-15
		c-1-3.8-4.8-6.9-3.5-11.3c1.8-5.9,0.1-13.3-5.3-16.5C80.6,71,75.7,66,70.3,63c-9.9-5.4-22-6.3-32.9-2.8c-6.3,2-12.4,4.9-19,6.6
		c-7,1.7-11.9,5.8-13.1,13.8C4.7,84,4.1,88,0,89.6c0-5.2,0-10.3,0-15.5c1-0.1,1.8-0.4,2.2-1.3C6,64.9,13.3,62.5,21,60.9
		c2.9-0.6,5.9-0.6,8.4-2.4c13.7-9.6,27.8-2.9,41.8-1.2c2,0.2,3.3,2.3,4.7,3.7c2.7,2.8,5.6,5,9.3,6.6c7.7,3.2,14.6,13.5,13,20
		c-1.1,4.9,0.8,8.8,2.7,12.2c2.3,4.1,2.3,7.5,1,11.4c-2.1,6.5-5.9,12.6-4.7,20c0.4,2.3-0.9,4.7-2.4,6c-4.7,4.1-5.1,10-6.9,15.2
		c-2.6,7.3-3.7,14.7-2.9,22.5c1,9.5,7.3,13,14.8,7.6c6.4-4.7,13.5-7.6,21.2-8.9c13.8-2.3,25.9-7.6,35.9-17.4c2.8-2.7,7.9-4,7.8-8.6
		c-0.5-17.7,2-35.3,1.1-52.9c-0.2-4.4,0.4-10-5.9-12.2c-2.5-0.9-3.8-3.9-3.8-6.9c-0.1-7.2-3.9-14.1-2.3-21.5c0.3-1.6-1-2.6-1.9-3.8
		c-2.7-3.5-4.7-7.2-2.3-11.6c2.3-4.3,6.2-6.8,10.7-6.6c6.1,0.4,6.9-3,5.5-7c-1.8-5.3,1.1-10.9-1.8-16.1c-0.9-1.5,0.7-3.5,1.8-5
		c1-1.3,2.5-2.3,2.4-4.2c4.1,0,8.1,0,12.2,0c0.6,3.6,5.2,5.8,3.8,9.8c-2.3,6.8-0.9,13.7-1.6,20.6c-0.3,3.3,0.4,4.9,4.3,5.2
		c6.8,0.4,13,2.5,17,8.6c4.9,7.5,10.4,14.8,13.9,23.1c1.3,3.1,2.4,6.2,2.3,9.6c-1.1,20.7,2.7,41.5,0,62.2c-1.2,9.3-3.2,18.3-9.4,26
		c-7.6,9.4-16.7,17.1-24.9,25.8c-1.6,1.7-3.4,3.2-3.4,6c0,15.1,0.4,30.1-1,45.2c-0.5,5,1.2,5.4,5.2,2.7c7.5-5,15.2-9.6,22.7-14.5
		c2.2-1.4,4-1.3,6.1-0.2c1.7,0.9,2.7,2.1,2.2,4c-2.1,8.9-0.5,18-1,26.9c-0.1,2.6,0.4,5,1.4,7.5c15.5,37.1,31,74.2,46.2,111.4
		c2.8,6.8,7.3,11.1,14.3,12.9C278.6,395.7,278.6,398.6,278.6,401.6z M169.2,398.3c-2.4,4.8,1.7,5.6,4.5,6.7c6.4,2.5,13.2,3,19.9,3.2
		c13.2,0.3,26.5,0,39.7,0.1c8.6,0.1,16.7-1.6,24.5-5.1c1.4-0.6,4.1-0.5,3.5-2.6c-0.6-2.3-3.3-1.4-4.8-1.1c-9.4,2.2-19,0.7-28.5,1.8
		c-13.5,1.7-27.1-1-40.7-1.2c-4.5-0.1-9.5,0.4-13.9-1.9c1.6-1.8,3.8-1.1,5.7-1.1c10.3-0.1,20.6,0,30.8,0c2,0,4,0,6.1,0
		c1.1,0,2.4-0.2,2.4-1.6c0-1.4-1.2-1.6-2.4-1.6c-5.3,0-10.6-0.2-16,0c-9.3,0.3-18.7-1-27.9,1C170,395.3,169,396,169.2,398.3z
		 M86.2,450.3c-1.1,1.1-4.1,1.5-1.1,4c2.6,2.1,4.9,4.1,8.3,5c7,1.9,14.2,1.5,21.3,2.2c15,1.4,30,1.7,45-0.3c7.5-1,14.8-3,21.1-7.8
		c-7.5,0-14.8,1.1-22.1,1.2c-19.6,0.2-39.3,0.7-58.9-1.2c-3.7-0.4-8.4,1-11.3-3.1c15.6,0,31.2,0,46.8,0c-0.2-2.1-1-2.1-1.7-2.1
		c-15.2,0-30.5-0.1-45.7,0c-1.1,0-2.1,0.4-3.2,0.8c-0.7,0.2-1.5,0.7-0.2,1.3C85.1,450.3,85.7,450.2,86.2,450.3z M160.3,47.6
		c-0.3,3.6,0.8,5.1,4.8,3.8c5-1.6,10.3-2.6,15.8-0.8c-0.9,1.5-1.9,1.4-2.8,1.4c-4.5-0.4-8.8,0.5-13,1.6c-2.9,0.7-5.2,3.1-4.4,6.1
		c1,3.9,4.1,1.4,5.9,0.7c6.5-2.5,13-1.8,20.3-1.3c-2.1,2.6-4.1,1.8-5.8,1.8c-5.1,0-10.3-0.2-15.2,1.8c-2.7,1.1-5.3,2.7-4.2,6.1
		c1.2,3.5,4,1.5,6.1,1c5.7-1.2,11.3-2.2,18.1,1c-7.2,0.3-13.2-0.6-18.9,1.4c-1.8,0.6-3.5,1.8-3.1,4c0.4,2,2.4,1.4,3.7,1.3
		c1.8-0.1,3.6-0.4,5.4-0.7c8.9-1.8,19.2,2.3,23.9,9.4c0.8,1.2,1.3,2.6-0.3,3.2c-2.6,1-2.9,3.4-3.1,5.4c-0.4,4-1.9,7.5-3.7,10.9
		c-2.4,4.4-3.9,9.1-5.3,13.9c-5.3,17.8,0.6,35.9-1.1,53.8c0,0.4,0,0.8,0.1,1.1c0.3,1.1,1.2,1.6,2,0.8c3.1-2.9,9-6.7,8.5-8.7
		c-1.6-6,3.1-7,5.6-8.8c4.1-3.1,6.2-6.8,6.9-11.4c1.4-8.5,2.4-17,2.3-25.7c-0.1-10.8-0.6-21.5-0.2-32.3c0.2-4.1,1.5-8,0.7-12.5
		c-2-10.2-7.8-18.6-12.1-27.7c-1.4-3-4.4-4.8-8.1-4.9c-8.3-0.2-16.4,0.6-24.5,2.2c0-2,1.7-2,2.9-2.7c0.8-0.5,1.6-1.6,0.8-2.2
		c-2.1-1.4-4.7-2.4-7.2-1.5c-2,0.7-5.1,0.5-5.2,3.9C155.9,45.7,157.6,47.2,160.3,47.6z M134.1,303.9c0.3,5-1.5,10.4,0.7,15.6
		c9.3,22.6,18.6,45.2,27.9,67.7c1.7,4.2,3.3,4.2,6.7,0.8c5.2-5.2,6.2-12.4,8.4-18.8c10.2-29.3,19.4-59,30.2-88.1
		c4.6-12.3,5.7-24.5,5.4-37.2c-0.1-2.9-0.3-4.4-3.6-2.2c-4.4,3-9.2,5.4-13.6,8.4c-5.5,3.9-12.8,5.8-15,13.6c-0.5,1.8-3.1,3-5.1,2.7
		c-6.3-0.8-10.8,3-15.5,6c-4.5,2.8-8.8,6.1-13.5,8.5C137.5,285.7,129.7,291.2,134.1,303.9z M126.6,769.7c-1.2-7.1-2.8-13.5-9-17.6
		c-3.5-2.3-4.4-6.2-5.7-9.8c-2-5.5-3.3-11.3-5.3-16.8c-4-11-4.5-22.1-1.9-33.5c2.2-10,3.7-20.4-2.7-29.3
		c-8.2-11.4-7.4-23.8-6.3-36.5c0.8-9.8,1.8-19.7,2.8-29.5c0.3-3.3-0.9-3.9-3.8-2.4c-9.8,5-18.3,11.6-25.5,19.9
		c-6,7.1-9.7,14.9-8.5,24.7c0.5,4.3,0.8,8.7,1.2,13.1c1.6,14.8,8.9,27.3,17.9,38.4c4.1,5.1,6.9,10.1,8.8,16
		c2.7,8.6,2.9,17.7,4.1,26.5c1,7.1,2.5,14,4,21c2.5,10.9,8,18.9,18.1,23.6c1.7,0.8,4.1,2.5,5.7,0.9c2.2-2.2-2.1-2.9-1.8-4.9
		c0-0.3,0.4-0.5,0.6-0.8c2.8,0.1,3.2,3.7,6,4.4c2-5-4.2-6.8-4.2-10.9C123.9,765.9,124.1,768.8,126.6,769.7z M118.1,589.9
		c-2.9,1.8-4,3.8-4.1,6c-0.5,10.9-4,21.2-6.2,31.7c-0.8,4-1.8,7.9-1,12.4c1.6,9.3,7.2,16.9,9.2,25.8c0.7,2.9,3,2.6,4.8,2.1
		c2.5-0.6,5.9-0.4,6.3-4.2c1.7-14.3,2.5-28.5-1.7-42.5c-0.4-1.4-1.7-2.9-0.7-4.6c1.3-0.1,1.6,1,2,1.7c5.6,10.2,9.1,21.2,10.5,32.8
		c0.1,1.2-0.4,2.8,1.3,3.3c1.7,0.5,2.3-1,2.7-2.2c3.3-8.4,9.9-14,15.9-20.2c3.2-3.3,6.2-6.6,7.8-11.2c2.9-8.5-5.3-24.2-9.9-28.5
		c-2.9-2.6-5.7-1.4-8.6,0.2c-3,1.6-2.6,3.9-2.1,6.6c0.7,3.5,3.1,7,0.2,12c-1.6-8.2-6.1-13.1-11.8-17.1c-2.4-1.7-3.4-4.7-4.2-7.6
		c-1.9-6.3-0.8-12.8-1.2-19.2c-0.1-2,0.6-4.2-1.2-6.6c-1.6,2.7-0.9,5.1-1,7.4c-0.2,5.9,1.2,12.1-4.3,16.8c-1.7,1.4-0.9,3.6-0.3,5.7
		c2.7,8.9,7.9,16.6,11.6,25c1.9,4.2,4.2,8.2,4.1,13.1C130,616.1,122,604.2,118.1,589.9z M214.4,276.6c-3,1.6-3.1,3.6-3.6,5.3
		c-2.7,7.8-5.2,15.7-7.9,23.5c-8.5,24.8-17.1,49.6-25.6,74.5c-3,8.7-2.3,9.6,6.6,9.6c10.3,0,20.6-0.2,30.9,0.1
		c4.2,0.1,5.4-1.3,5.2-5.4c-0.4-12.1-1.3-24.1-2.2-36.2c-1.1-16.4-1.3-33-2.5-49.4C215,291.5,214.5,284.4,214.4,276.6z M219,280.3
		c-1.8,1.5-1.2,3.3-1.1,4.8c1,17.7,1.7,35.5,3.1,53.2c1.2,15.3,1.8,30.8,2.3,46.1c0.1,3.9,1.2,5.1,5.1,5c9.2-0.2,18.4-0.1,27.6-0.1
		c7.9,0,8.7-1.1,5.7-8.5c-12.6-30.5-25.2-61.1-38.1-91.5C222.3,286.4,221.6,282.8,219,280.3z M136,330.7c-0.4,0.1-0.7,0.1-1.1,0.2
		c0,2.6-0.1,5.2,0,7.7c1,16.1,2.5,32.1,3.1,48.2c0.3,9.5,0.8,19.1,1.6,28.6c0.7,8.2-0.5,16.5,1.6,24.7c0.7,2.7,1.5,3.7,4.2,3.6
		c10.3-0.1,20.6,0,30.9-0.1c4.2,0,5.5-2.2,4-6.1c-1.7-4.3-3.2-8.6-5.3-12.7c-4-8-5.5-17.3-13-23.3c-1.4-1.1-2.4-3.3-1.7-5
		c1.9-4.8-0.7-8.5-2.3-12.5c-3.4-8.5-7-17-10.5-25.4C143.7,349.2,139.9,339.9,136,330.7z M129.4,321.6c1.6-2.1,2.2-4.3,2.1-6.7
		c0-8.1,0-16.2,0-24.3c0-1.3,0.1-2.8-0.6-3.7c-3.2-4.3-0.9-6.5,2.7-8.7c8.6-5.2,17.1-10.7,25.7-16c3.2-2,6.3-4.2,6.4-8.3
		c0.2-13.6,0.1-27.3,0.1-40.9c0-2.5-0.9-2.7-3-1.5c-5.4,3.2-10,7.4-14.4,11.8c-4.3,4.3-8,9.1-9,15.4c-2.1,13-3.6,26.2-11.3,37.5
		c-1.1,1.6-1.3,3.8-1.9,5.7C121.8,295.5,125.1,308.4,129.4,321.6z M130.3,329.7c-4,11.8-8,23.6-11.7,35.5c-0.7,2.1-0.4,4.8,0.1,7.1
		c3.8,15.6,4.8,31.4,5.1,47.3c0.1,6.4,0,12.9,0,19.3c0,1.4-0.6,3.5,0.9,4.1c3.8,1.5,8.2,1.4,11.9,0.2c3.2-1,1.6-4.9,1.5-7.4
		c-1.3-21.5-3.2-43-4.2-64.6C133.3,357.3,132.4,343.5,130.3,329.7z M164.4,179.4c0-4.8,0.3-8.8-0.1-12.8c-0.3-3.3-1.8-4.9-5.4-2.3
		c-6.1,4.4-11.5,9.7-18.7,12.4c-1.9,0.7-1.9,2.5-1.9,4.2c-0.2,6.9,2.6,12.9,5.4,18.9c1.5,3.2,3.3,8.8,7.6,1.8
		c0.4-0.7,1.4-1.1,2.2-1.6C161.9,195.3,167.7,189.3,164.4,179.4z M87.6,227.1c2.2-0.8,2.8-0.8,3.2-1.2c9.7-7.5,18.8-15.8,30.2-21
		c1.4-0.6,1.9-1.8,1.3-3.2c-2.6-5.7-2.2-11.5-0.4-17.2c0.9-2.9-0.3-3.3-2.6-2.9c-1.8,0.4-3.7,0.6-5.3,1.5c-4.4,2.5-10.9,3-12,8.8
		C99.6,204.1,95.5,215.4,87.6,227.1z M24.1,115c19.3-5.4,37.6-7.2,56.2-2.8c3.8,0.9,2.3-2.4,3.1-3.8c1.1-1.9,0.3-3.2-2-3.2
		c-6.5,0-12.1-2.5-17.4-6c-1.5-1-3.6-2-5.1-1.6c-6.2,1.6-12.3,0.8-18.5-0.2c-2.3-0.4-3.9,0.4-3.9,3.2c0.1,4.7-2.5,7.5-6.9,8.8
		C27.1,110.2,25.6,111.7,24.1,115z M168.1,213.2c0,10.1-0.1,20.3,0.1,30.4c0,1.9,0.1,5.1,3,5.1c3.6,0,2.3-3.2,2.3-5.1
		c0.1-17.7,0.1-35.3,0-53c0-2.6-0.1-5.2,1.4-7.5c2-2.9,1.8-6.2,2-9.5c0.2-4.1-1.6-5.4-5.5-5.5c-4.5-0.1-4.8,2.3-4.5,5.5
		C168.4,186.8,168,200,168.1,213.2z M106.5,404.3c-0.6,0.3-1.2,0.3-1.3,0.5c-4.9,11.1-8.3,22.7-12.1,34.2c-0.6,1.8,0.3,3.7,2.4,4.4
		c2.1,0.7,2.8-1,3.7-2.5c2.1-3.4,2.5-7.6,5.3-10.9c1.3,3.1-0.5,5.6-0.5,8.2c0,1.9-1.4,5.1,2.2,5.1c3.2,0,2.3-3,2-4.7
		c-1.4-9.3-0.9-18.7-1-28C107.2,408.6,107.8,406.3,106.5,404.3z M168.1,138.3c0,5,0.1,9.9,0,14.9c-0.1,2.8,0.9,4.2,3.8,3.9
		c1.7-0.2,4.2,0.9,4.7-1.5c0.6-2.8,1.5-6.3-0.7-8.4c-2.4-2.3-2-4.8-2.3-7.5c-0.5-5.2,0.9-9.9,3-14.7c1-2.4,1.4-6.1-3.2-6.6
		c-3.7-0.4-5.4,1.1-5.3,5C168.2,128.4,168.1,133.3,168.1,138.3z M161.3,269.1c-1.4-2-3.3-3.1-4.6-2.3c-8,4.7-15.9,9.7-23.8,14.6
		c-1,0.6-1.4,1.8-0.6,2.9c0.7,1,1.8,1.3,3,0.8c1-0.4,2-0.9,2.9-1.5C145.8,278.9,153.4,274.1,161.3,269.1z M271.2,397.2
		c0-0.6,0.1-1.2,0.1-1.8c-14.4-2.8-29-1.1-43.5-1.4c-0.7,0-1.6,0.2-1.6,1.2c0,1.4,1.1,1.9,2.2,1.9c4.2,0.1,8.5,0.1,12.7,0.1
		C251.1,397.2,261.1,397.2,271.2,397.2z M214.4,234.1c0-1-0.4-1.8-1.3-2.3c-1.2-0.7-2,0.3-2.9,0.8c-5.6,3.5-11.3,6.8-16.8,10.4
		c-1.4,0.9-4.4,1.7-2.6,4.4c1.5,2.4,3.6,1.1,5.3,0c5.3-3.3,10.5-6.7,15.7-10.1C213,236.7,214.2,235.7,214.4,234.1z M175.7,95.8
		c0-1.9,0.1-3.5,0-5.2c-0.2-2.5-2.5-2.3-4.1-2.9c-1.1-0.4-2.3,0.2-2.3,1.6c0.1,5.6-1,11.3,0.8,16.9c0.5,1.4,1.1,2.3,2.7,2.1
		c1.4-0.2,1.8-1.2,1.8-2.3C174.6,102.4,176.5,99.2,175.7,95.8z M144.5,448.8c0,0.3,0,0.7,0,1c15.2,0,30.4,0,45.5,0c0-0.3,0-0.7,0-1
		C174.9,448.8,159.7,448.8,144.5,448.8z M171.5,13.3c3.9,0.1,6.4-1.1,6.3-4.5c-0.1-2.8-0.7-5.7-5-5.6c-3.8,0.1-5.5,2-5.7,5.2
		C166.8,11.8,169.1,13.2,171.5,13.3z M175.4,23.6c-2.6-1.8,2.1-7.5-3.6-8c-3.9-0.3-3.2,3.7-3.2,5.7c-0.1,2.2,0.6,5.3,4.3,5.2
		C174.6,26.5,175.9,26.1,175.4,23.6z M122.5,343.7c-0.3-0.1-0.6-0.2-0.9-0.4c-2.8,3.7-5.7,7.3-8.4,11.1c-1.2,1.7-0.4,3.6,0.7,5.1
		c1,1.3,2.3,1.4,2.9-0.2C118.9,354.2,120.7,348.9,122.5,343.7z M182.3,88.2c1.1,5.2-1.2,10.2-0.3,16.3
		C188.1,95.1,188.2,90.3,182.3,88.2z M165.5,264.9c-0.1,0.3-0.3,0.6-0.4,0.9c0.3,0.1,0.7,0.4,0.9,0.3c0.2-0.1,0.3-0.6,0.4-0.9
		C166.2,265.1,165.8,265,165.5,264.9z M185.4,248.3c-0.1,0.3-0.3,0.6-0.4,0.9c0.3,0.1,0.7,0.4,0.9,0.3c0.2-0.1,0.3-0.6,0.4-0.9
		C186.1,248.5,185.7,248.4,185.4,248.3z"/>
	<path class="st0" d="M0,441.4c3.1,0.4,2,3.1,2.4,4.8c4,18.1,10.1,35.6,14.5,53.5c3.6,14.4,6.1,29,6.4,43.9
		c0.1,5.1,1.7,10.3-0.7,15.5c-1.3-7.7-2.5-15.5-3.9-23.2c-3.9-21.5-10.5-42.3-16.7-63.2c-0.3-1.1-1.1-1.3-2.1-1.5
		C0,461.3,0,451.4,0,441.4z"/>
	<path class="st0" d="M0,579.7c4.1,0.3,5,4.1,6.9,6.6c17.8,23.6,30.7,49.4,36.8,78.5c0.4,1.8,0.7,3.6,0.1,6.9
		c-3.1-7.4-5.7-13.6-8.2-19.8c-8.3-20.9-19.3-40.3-32.2-58.8c-0.9-1.3-1.8-2.3-3.4-2.3C0,587.1,0,583.4,0,579.7z"/>
	<path class="st0" d="M0,534.3c4,1.1,4.4,5.2,5.9,8c5.7,10.7,9.4,22.1,10.5,34.3c0,0.4-0.4,0.9-1.2,2.4c-2.3-9-4.6-16.9-8.8-24.1
		c-1.8-3-2.5-6.9-6.4-8.4C0,542.5,0,538.4,0,534.3z"/>
	<path class="st0" d="M0,283.2c1.6,0,2.7-1,3.7-2.1c7.2-8.1,17.4-9.3,27-12.1c0.2-0.1,0.5,0.4,1.6,1.3C21,276.5,8.4,279.9,0,289.8
		C0,287.6,0,285.4,0,283.2z"/>
	<path class="st0" d="M0,329.7c2.3,0.6,4.1-4,6.1-1.2c1.5,2-1.2,4.2-2,6.3c-0.7,1.8-1.5,3.8-4.1,3.8C0,335.6,0,332.6,0,329.7z"/>
	<path class="st0" d="M0,123.9c0.8,0.2,1.9,0.1,1.6,1.3c-0.1,0.4-1.1,0.6-1.6,0.9C0,125.4,0,124.6,0,123.9z"/>
	<path class="st0" d="M82.3,398.8c2.4,10.7,1.8,21-1.3,31.3c-4.1,13.7-11,26-18.5,38c-9.7,15.6-20.6,30.4-27.3,47.7
		c-2.4,6.3-4.3,12.8-5.8,20.8c-1.5-7.1,0-12.6,1.2-18.1c3.6-16,11.1-30.2,19.7-44c9.9-16.1,20.6-31.8,26.6-49.9
		c2.1-6.2,4.1-12.5,3.9-19.3C80.8,403.1,81.8,401,82.3,398.8z"/>
	<path class="st0" d="M41.5,601.2c-3.6-8.4-3.3-17-1.2-25.8c4.4-18,14.2-33.3,24.2-48.6c6.7-10.3,15.2-19.2,23.1-28.6
		c1.1-1.3,2.3-2.4,3.5-3.5c1-0.9,2.2-1.9,3.3-0.6c0.9,1.1-0.5,1.9-1.1,2.7c-6.1,8.7-12.6,17.2-18.3,26.2
		c-10.7,17.1-22.3,33.7-29.1,53c-2,5.8-3.3,11.6-2.9,17.8c0.2,2.4,0,4.9,0,7.4C42.6,601.2,42,601.2,41.5,601.2z"/>
	<path class="st0" d="M55.6,593.8c-2.5-14.7,20.2-41.3,37-43.3C78.9,564.2,65.9,577.3,55.6,593.8z"/>
	<path class="st0" d="M28.4,469.4c-14.1-7.7-24.6-43.3-17.9-61.9C13.2,430,16.9,450.8,28.4,469.4z"/>
	<path class="st0" d="M72.4,390.4c1.6,18.4-14.1,50.5-27.8,56.9C57.2,429.9,66.6,411.1,72.4,390.4z"/>
	<path class="st0" d="M64.8,377.3c-0.2,13-18.7,31.2-36.6,30C43.6,401.6,55.2,391.1,64.8,377.3z"/>
	<path class="st0" d="M73.6,733.6c1.6,3.6,3.7,7.2,1.5,12.7C73.7,741.3,72.5,737.7,73.6,733.6z"/>
	<path class="st0" d="M99.2,396.1c-0.6-2.2,0.2-3.4,0.9-4.8C100.7,393,101,394.4,99.2,396.1z"/>
	<path class="st0" d="M76.6,463.1c-0.3-0.1-0.8-0.2-0.9-0.4c-0.1-0.2,0.2-0.6,0.3-0.9c0.3,0.1,0.8,0.2,0.9,0.4
		C77,462.5,76.7,462.8,76.6,463.1z"/>
	<path class="st0" d="M99.1,400.2c-0.1,0.3-0.2,0.8-0.4,0.9c-0.2,0.1-0.8-0.2-0.9-0.4c-0.1-0.2,0.2-0.8,0.4-0.9
		C98.4,399.7,98.8,400,99.1,400.2z"/>
	<path class="st0" d="M34.7,226.8c-12.4,2-23.5-0.1-32-10.2C13.2,220.5,24,223.5,34.7,226.8z"/>
	<path class="st0" d="M86.6,209.6c-5.1,8.9-19.6,14.9-31.1,13.2C66.4,218.4,76.6,214.2,86.6,209.6z"/>
	<path class="st0" d="M50.5,219.2c-1.3-7.8,1.1-15.3,0.4-23c-0.1-0.9,0.1-1.9,1.2-2.2c1.5-0.3,1.7,0.8,2.1,1.9
		C56.7,204.2,55,211.9,50.5,219.2z"/>
	<path class="st0" d="M24,86.7c-4.9-2.2-7.5-6.1-9.4-10.6c-0.7-1.6,0-3.4,1.9-3.9c2.2-0.6,2.2,1.4,2.7,2.7
		C20.8,78.8,22.4,82.7,24,86.7z"/>
	<path class="st0" d="M14.3,176.6c1.8,2.4,1,4.9,1.1,8.6C12.3,181.8,13.4,179.2,14.3,176.6z"/>
	<path class="st0" d="M184.3,51.6c0-0.1,0.1-0.4,0.1-0.4c0.2,0,0.3,0.1,0.5,0.1c0,0.1-0.1,0.4-0.1,0.4
		C184.6,51.7,184.5,51.6,184.3,51.6z"/>
</g>
</svg>
