<?xml version="1.0" encoding="utf-8"?>
<!-- Generator: Adobe Illustrator 26.5.0, SVG Export Plug-In . SVG Version: 6.00 Build 0)  -->
<svg version="1.1" id="katman_1"  xmlns="http://www.w3.org/2000/svg" xmlns:xlink="http://www.w3.org/1999/xlink" x="10px" y="10px"
	 viewBox="0 0 1154.9 173.9" style="enable-background:new 0 0 1154.9 173.9;" xml:space="preserve">
<g>
	<path d="M133.3,151.2c0-20.8,0-42.9,0-63.8c0.1-0.6,0.1-1.2,0.1-1.8c13.1,0.1,23.8,2,36.3,5.6c-1.4-0.9-2.7-1.8-4-2.7
		c-1.4-1-2.7-1.9-4.4-3c1.1-0.3,1.9-0.5,2.7-0.7c9-2.2,17.4-5.7,24.7-11.5c7.8-6.1,13.6-13.9,17.6-23c2.5-5.3,4.2-10.9,5.6-16.6
		c0.1-0.3,0.1-0.5,0.5-0.7c0.3,1.2,0.5,2.5,0.7,3.7c1.6,9.2,1.6,18.3-0.9,27.4c-2.3,8.2-6.5,15.3-12,21.8
		c-5.5,6.4-11.8,11.8-18.6,16.6c-3.2,2.2-6.5,4.4-9.9,6.5c-0.9,0.5-1.4,1.2-1.9,2.1c-2.7,5.2-5.4,10.5-8.1,15.7
		c-0.2,0.4-0.4,0.7-0.7,1.2c-3.1-2.3-6-4.6-9-6.9c-0.1,0.1-0.1,0.1-0.2,0.1c0.1,0.3,0.3,0.7,0.4,1c2.2,4.3,4.3,8.7,6.5,12.9
		c0.3,0.5,0.5,1.1,0.2,1.8c-3.4,8.5-7.4,16.6-13.1,23.9c-3.5,4.7-7.7,8.8-12.5,12.3c-0.3,0.3-0.7,0.5-1.1,0.7
		c-3.3-2-6.3-4.3-9.1-6.8c-8.7-7.8-14.5-17.4-18.2-28.4c-0.4-1.2-1-2.3-0.9-3.4c0.1-1.1,0.9-2.1,1.4-3.1c1.7-3.5,3.4-6.9,5.1-10.4
		c0.1-0.3,0.3-0.6,0.2-1c-3.1,2.5-6.2,5-9.5,7.7c-0.3-0.5-0.5-0.9-0.8-1.3c-3.2-5.5-6.4-10.9-9.6-16.4c-0.4-0.7-1-1.3-1.8-1.6
		c-7.7-3.7-14.9-8.3-21.3-14.1c-10.2-9.3-16.4-20.8-18.5-34.3c-1.1-6.7-1.3-13.5-0.8-20.2c0.2-2.6,0.4-5.1,0.6-7.7
		c0-0.4,0.1-0.7,0.4-1.2c0.1,0.3,0.3,0.7,0.4,1c2.2,6.9,4.8,13.8,8.2,20.2c3.3,6.3,7.4,12.2,12.5,17.2c7.5,7.3,16.4,11.9,26.5,14.4
		c0.6,0.1,1.2,0.3,2.1,0.5c-3.6,2.2-7.1,4.1-10.4,6.2c13.6-3.6,28.5-5.7,42.8-5.7c0,3.7,0,7.4,0,11c0,3.7,0,7.4,0,11
		c0,3.7,0,7.4,0,11c0,3.7,0,7.4,0,11s0,17.8,0,21.5H133.3z"/>
	<path d="M30.4,59.8c1.1,2.1,2,4,3,5.9c1.8,3.4,4,6.5,6.6,9.4c0.5,0.5,0.7,1.2,0.6,1.9c-0.1,3.4-0.3,6.8-0.3,10.2
		c0.5,14.8,4.9,28.3,13,40.7c4.8,7.4,10.7,14,17.7,19.5c0.1,0.1,0.3,0.2,0.4,0.3c0.1,0.1,0.1,0.1,0.2,0.4c-12.3,0.5-24.4,1-36.6,1.5
		c0,0.1,0,0.1,0,0.2c12.3,0.1,24.6,0.2,37.2,0.3c-0.6,1-1.1,1.8-1.6,2.6c-1.5,2-3.4,3.3-5.5,4.4c-3.3,1.8-6.9,2.7-10.6,3.4
		c-6.8,1.2-13.6,1.5-20.5,1.2c-5.3-0.3-10.6-0.7-15.9-1.7c-3.6-0.7-7.2-1.6-10.6-3.1c-2-1-4-2.1-5.5-3.7c-1.7-1.8-2.6-4-2-6.5
		c0.1-0.3,0.2-0.7,0.3-1c5.5-14.1,10.4-28.4,15.3-42.7c4.7-13.8,9.3-27.7,14-41.6C30,60.8,30.2,60.4,30.4,59.8z M65.1,146.3
		c-0.3-0.3-0.4-0.3-0.5-0.5c-7.3-5.2-13.1-11.9-17.8-19.5c-7.7-12.4-12.4-25.9-15.1-40.1c-0.1-0.4-0.2-0.8-0.3-1.5
		c-0.5,0.8-0.9,1.4-1.2,1.9c-1.3,2.4-2.6,4.8-3.7,7.2c-8.2,17-15.6,34.3-23.1,51.6c-0.1,0.3-0.1,0.5-0.3,0.9
		C23.7,146.3,44.2,146.3,65.1,146.3z"/>
	<path d="M231,59.7c0.7,2.2,1.4,4.2,2,6.2c8.4,25.2,16.8,50.3,26,75.2c0.5,1.4,1.1,2.9,1.6,4.4c1,2.2,0.6,4.4-0.6,6.5
		c-0.9,1.4-2.2,2.6-3.5,3.5c-2.9,2-6.3,3.1-9.7,4c-4.8,1.2-9.7,1.8-14.6,2.2c-4.4,0.3-8.9,0.6-13.3,0.4c-6-0.2-11.9-0.8-17.7-2.6
		c-3-1-5.9-2.2-8.4-4.2c-1.2-1-2.3-2.2-3.1-3.5c-0.2-0.3-0.4-0.7-0.7-1.4c12.5-0.1,24.7-0.2,36.9-0.3c0-0.1,0-0.1,0-0.3
		c-12.1-0.5-24.2-1-36.6-1.5c0.3-0.3,0.5-0.5,0.6-0.7c15.8-12.9,25.9-29.2,29.6-49.3c1.3-6.9,1.6-14,1-21.1
		c-0.1-0.9,0.1-1.5,0.7-2.1c3.7-4,6.4-8.7,8.7-13.6C230.4,60.9,230.6,60.4,231,59.7z M258.5,146.4c-0.2-0.5-0.3-0.9-0.5-1.2
		c-0.9-2-1.8-4.2-2.7-6.2c-6.5-14.9-12.9-29.7-19.9-44.3c-1.4-2.9-3-5.7-4.5-8.6c-0.2-0.4-0.3-0.9-1-1c-0.2,1.2-0.4,2.2-0.6,3.3
		c-2.4,11.7-6.2,22.8-11.9,33.3c-5.2,9.5-11.7,17.8-20.6,24.2c-0.1,0.1-0.2,0.2-0.3,0.5C217.2,146.4,237.8,146.4,258.5,146.4z"/>
	<path d="M63.4,0.2C63,0.6,62.5,1,62.1,1.4c-6.4,5.7-11.8,12.3-15.7,19.9c-3.5,6.8-5.6,14-6.4,21.7c-1,9.5,0,18.8,2,28.1
		c0.1,0.3,0.1,0.6,0.1,0.9c0,0.1-0.1,0.1-0.1,0.3c-0.1-0.2-0.3-0.3-0.4-0.5c-4.9-6.5-8.7-13.6-10.7-21.5
		c-2.5-10.2-1.6-20.1,3.6-29.4c3.7-6.6,9.2-11.7,15.7-15.5c3.9-2.2,8-4,12.3-5.2C62.8,0.1,63,0,63.3,0C63.4,0.1,63.4,0.1,63.4,0.2z"
		/>
	<path d="M219.2,72.1c0.3-1.6,0.6-3.2,1-4.8c1.1-5.7,1.7-11.4,1.6-17.2c-0.1-17.6-6.4-32.7-18.8-45.2c-1.6-1.6-3.3-3.2-5.1-4.9
		c0.3,0,0.5-0.1,0.7,0c8.7,2.6,16.5,6.7,22.8,13.4c7.2,7.6,10.7,16.8,10.5,27.3c-0.1,7.8-2.5,15-6,21.8c-1.6,3.2-3.6,6.2-5.8,9.1
		c-0.2,0.3-0.4,0.5-0.5,0.7C219.4,72.1,219.2,72.1,219.2,72.1z"/>
</g>
<g>
	<path d="M468.7,158.8l-2.1-6.4h-12.9l-2.2,6.4H444l13.2-36.4h5.6l13.3,36.4H468.7z M460.2,133.2l-4.6,13.2h9L460.2,133.2z"/>
	<path d="M489.2,158.8H484l-9.8-26.6h7l5.4,16.4l5.4-16.4h7L489.2,158.8z"/>
	<path d="M501.6,158.8v-7.6h7.6v7.6H501.6z"/>
	<path d="M546.1,158.8l-7.1-14.5h-5.1v14.5h-7.1v-36.4H541c7.4,0,11.8,5.1,11.8,11.1c0,5.1-3.1,8.3-6.6,9.5l8.1,15.7H546.1z
		 M540.6,128.8h-6.7v9.6h6.7c3.1,0,5.2-2,5.2-4.8S543.7,128.8,540.6,128.8z"/>
	<path d="M572.3,158.8v-2.3c-1.8,1.8-3.5,2.6-6.5,2.6c-3,0-5.2-0.8-6.8-2.3c-1.4-1.5-2.2-3.6-2.2-6c0-4.2,2.9-7.7,9.1-7.7h6.3v-1.3
		c0-2.9-1.4-4.2-5-4.2c-2.6,0-3.7,0.6-5.1,2.2l-4.2-4.1c2.6-2.9,5.2-3.7,9.6-3.7c7.5,0,11.3,3.2,11.3,9.4v17.5H572.3z M572.1,147.6
		h-5.3c-2.4,0-3.7,1.1-3.7,3c0,1.8,1.2,3.1,3.8,3.1c1.8,0,3-0.2,4.2-1.3c0.7-0.7,1-1.7,1-3.4V147.6z"/>
	<path d="M600.1,158.8v-16.2c0-3.5-2.2-4.7-4.3-4.7c-2.1,0-4.3,1.2-4.3,4.7v16.2h-6.6v-36.4h6.6v12.2c1.8-1.8,4-2.8,6.4-2.8
		c5.8,0,8.9,4.1,8.9,9.7v17.2H600.1z"/>
	<path d="M643.9,158.8v-16.1c0-3.6-2.3-4.9-4.4-4.9c-2,0-4.4,1.2-4.4,4.7v16.2h-6.6v-16.1c0-3.6-2.3-4.9-4.4-4.9
		c-2.1,0-4.4,1.2-4.4,4.9v16.1h-6.6v-26.6h6.5v2.5c1.7-1.8,4.2-2.8,6.6-2.8c3,0,5.4,1.1,7,3.4c2.2-2.3,4.6-3.4,8-3.4
		c2.7,0,5.1,0.9,6.5,2.3c2.1,2.1,2.9,4.6,2.9,7.6v17H643.9z"/>
	<path d="M656.5,127.7v-5.4h6.8v5.4H656.5z M656.6,158.8v-26.6h6.6v26.6H656.6z"/>
	<path d="M696.2,158.8H681v-36.4h14.6c7.1,0,11.2,4,11.2,10.2c0,4-2.7,6.6-4.5,7.5c2.2,1,5,3.3,5,8.2
		C707.3,155.1,702.7,158.8,696.2,158.8z M695,128.8h-6.9v8.4h6.9c3,0,4.7-1.7,4.7-4.2C699.7,130.5,698,128.8,695,128.8z
		 M695.5,143.5h-7.4v8.9h7.4c3.2,0,4.7-2,4.7-4.5S698.7,143.5,695.5,143.5z"/>
	<path d="M726.7,158.8v-2.3c-1.8,1.8-3.5,2.6-6.5,2.6c-3,0-5.2-0.8-6.8-2.3c-1.4-1.5-2.2-3.6-2.2-6c0-4.2,2.9-7.7,9.1-7.7h6.3v-1.3
		c0-2.9-1.4-4.2-5-4.2c-2.6,0-3.7,0.6-5.1,2.2l-4.2-4.1c2.6-2.9,5.2-3.7,9.6-3.7c7.5,0,11.3,3.2,11.3,9.4v17.5H726.7z M726.5,147.6
		h-5.3c-2.4,0-3.7,1.1-3.7,3c0,1.8,1.2,3.1,3.8,3.1c1.8,0,3-0.2,4.2-1.3c0.7-0.7,1-1.7,1-3.4V147.6z"/>
	<path d="M753.7,139.5c-1-1-1.9-1.6-3.5-1.6c-2,0-4.3,1.5-4.3,4.9v16h-6.6v-26.6h6.5v2.6c1.3-1.5,3.8-2.9,6.7-2.9
		c2.6,0,4.4,0.7,6.3,2.5L753.7,139.5z"/>
	<path d="M761.5,158.8v-26.6h6.6v26.6H761.5z"/>
	<path d="M783.3,159.1c-4.2,0-8-0.5-11.3-3.8l4.3-4.3c2.2,2.2,5.1,2.5,7.1,2.5c2.3,0,4.7-0.8,4.7-2.8c0-1.3-0.7-2.2-2.8-2.5
		l-4.2-0.4c-4.8-0.5-7.8-2.6-7.8-7.5c0-5.5,4.9-8.5,10.3-8.5c4.1,0,7.6,0.7,10.2,3.1l-4.1,4.1c-1.5-1.4-3.9-1.8-6.2-1.8
		c-2.7,0-3.8,1.2-3.8,2.6c0,1,0.4,2.1,2.8,2.3l4.2,0.4c5.3,0.5,7.9,3.3,7.9,7.8C794.5,156.3,789.5,159.1,783.3,159.1z M785.1,169.3
		H779l3.5-7.5h4.9L785.1,169.3z"/>
	<path d="M831.6,158.8l-9.3-16.5l-4.7,5.6v10.9h-7.1v-36.4h7.1v15.8l12.8-15.8h8.6l-12,14.4l12.9,21.9H831.6z"/>
	<path d="M848.1,147.6c0,3.4,2.1,5.9,5.8,5.9c2.9,0,4.3-0.8,6-2.5l4,3.9c-2.7,2.7-5.3,4.2-10.1,4.2c-6.3,0-12.3-2.9-12.3-13.6
		c0-8.7,4.7-13.6,11.6-13.6c7.4,0,11.6,5.4,11.6,12.7v3H848.1z M857.5,140.2c-0.7-1.6-2.2-2.8-4.4-2.8s-3.7,1.2-4.4,2.8
		c-0.4,1-0.6,1.7-0.6,2.9h10.1C858.1,141.9,858,141.1,857.5,140.2z"/>
	<path d="M878.1,158.8c-5.4,0-7.7-3.8-7.7-7.6V138h-2.8V133h2.8v-7.9h6.6v7.9h4.7v5.1h-4.7v12.8c0,1.5,0.7,2.4,2.3,2.4h2.4v5.6
		H878.1z"/>
	<path d="M906.3,156.7c-1.5,1.5-3.9,2.4-6.5,2.4c-2.8,0-4.8-0.8-6.6-2.8v2.5h-6.4v-36.4h6.6v12.1c1.7-1.9,3.7-2.7,6.4-2.7
		c2.6,0,5,0.9,6.5,2.4c2.7,2.7,2.7,7.2,2.7,11.2S909,154.1,906.3,156.7z M897.9,137.9c-4,0-4.5,3.3-4.5,7.6s0.5,7.7,4.5,7.7
		s4.5-3.3,4.5-7.7S901.9,137.9,897.9,137.9z"/>
	<path d="M932.7,155.9c-1.6,1.7-4.3,3.3-8.3,3.3c-3.9,0-6.6-1.5-8.2-3.3c-2.4-2.5-3-5.5-3-10.4c0-4.8,0.6-7.8,3-10.3
		c1.6-1.7,4.3-3.3,8.2-3.3c3.9,0,6.6,1.5,8.3,3.3c2.4,2.5,3,5.5,3,10.3C935.7,150.3,935.1,153.3,932.7,155.9z M927.6,139.1
		c-0.8-0.8-1.8-1.2-3.1-1.2c-1.3,0-2.3,0.4-3.1,1.2c-1.4,1.4-1.5,3.7-1.5,6.4c0,2.8,0.2,5.1,1.5,6.5c0.8,0.8,1.7,1.2,3.1,1.2
		c1.3,0,2.3-0.4,3.1-1.2c1.4-1.4,1.5-3.7,1.5-6.5C929.1,142.7,928.9,140.4,927.6,139.1z"/>
	<path d="M950.2,168.9c-4.1,0-6.9-0.8-9.6-3.5l4.1-4.2c1.5,1.4,3,2,5.2,2c4,0,5.4-2.8,5.4-5.5V155c-1.7,1.9-3.7,2.7-6.3,2.7
		s-4.9-0.9-6.3-2.3c-2.5-2.5-2.7-5.9-2.7-10.6s0.2-8,2.7-10.5c1.5-1.5,3.8-2.3,6.4-2.3c2.8,0,4.6,0.8,6.5,2.8v-2.5h6.4v25.6
		C961.9,164.2,957.4,168.9,950.2,168.9z M950.9,128.3c-4.4,0-8.2-2.2-8.4-7.7h4.4c0.3,2.2,2,3.1,3.9,3.1s3.7-0.9,3.9-3.1h4.4
		C959,126.1,955.3,128.3,950.9,128.3z M950.9,137.9c-3.9,0-4.3,3.4-4.3,6.9s0.4,6.9,4.3,6.9c3.9,0,4.4-3.4,4.4-6.9
		S954.8,137.9,950.9,137.9z"/>
	<path d="M982,158.8v-2.3c-1.8,1.8-3.5,2.6-6.5,2.6c-3,0-5.2-0.8-6.8-2.3c-1.4-1.5-2.2-3.6-2.2-6c0-4.2,2.9-7.7,9.1-7.7h6.3v-1.3
		c0-2.9-1.4-4.2-5-4.2c-2.6,0-3.7,0.6-5.1,2.2l-4.2-4.1c2.6-2.9,5.2-3.7,9.6-3.7c7.5,0,11.3,3.2,11.3,9.4v17.5H982z M981.8,147.6
		h-5.3c-2.4,0-3.7,1.1-3.7,3c0,1.8,1.2,3.1,3.8,3.1c1.8,0,3-0.2,4.2-1.3c0.7-0.7,1-1.7,1-3.4V147.6z"/>
</g>
<g>
	<path d="M312,78.8l-12.4-22l-4.5,5.2v16.8h-13V25.1h13v19l15.5-19h16.1l-18.3,21.7l18.9,31.9H312z"/>
	<path d="M331.3,78.8V25.1h36.5v11.8h-23.3v9h19.9v11.8h-19.9V67h23.3v11.8H331.3z"/>
	<path d="M398.8,36.9v41.9h-13.2V36.9h-13.2V25.1H412v11.8H398.8z"/>
	<path d="M441.5,78.8h-23.4V25.1h22.2c11.2,0,17.1,6.3,17.1,15.5c0,6.1-4.2,9.5-5.9,10.6c2.2,1.4,6.6,4.1,6.6,11.7
		C458.3,73.2,451.1,78.8,441.5,78.8z M439.6,36.9h-8.2v8.7h8.2c3.6,0,4.7-2.3,4.7-4.4C444.3,39.2,443.2,36.9,439.6,36.9z
		 M440.2,57.5h-8.9v9.4h8.9c3.6,0,4.8-2.5,4.8-4.7C445.1,59.9,443.9,57.5,440.2,57.5z"/>
	<path d="M499.5,73.2c-3.9,3.9-8.4,6-15,6s-11.1-2.1-15-6c-5.7-5.7-5.4-13.2-5.4-21.2c0-8.1-0.2-15.6,5.4-21.2c3.9-3.9,8.4-6,15-6
		s11.1,2.1,15,6c5.7,5.7,5.4,13.2,5.4,21.2C505,60,505.2,67.5,499.5,73.2z M489.8,38.7c-1-1.3-2.9-2.3-5.3-2.3s-4.3,1.1-5.3,2.3
		c-1.2,1.6-2,3.4-2,13.2c0,9.8,0.8,11.5,2,13.1c1,1.3,2.9,2.4,5.3,2.4s4.3-1.1,5.3-2.4c1.2-1.6,2-3.3,2-13.1
		C491.8,42.1,491,40.3,489.8,38.7z"/>
	<path d="M546.8,73.2c-4.6,4.7-9.7,6-15.6,6c-6.3,0-11-2.1-14.9-6c-5.7-5.7-5.4-13.2-5.4-21.2c0-8.1-0.2-15.6,5.4-21.2
		c3.9-3.9,8.4-6,14.9-6c13.8,0,19.7,9,20.9,17.8h-13.3c-1.1-4.1-3.2-6-7.7-6c-2.4,0-4.2,1.1-5.2,2.3c-1.2,1.6-2,3.4-2,13.2
		c0,9.8,0.8,11.7,2,13.3c1,1.3,2.8,2.3,5.2,2.3c2.8,0,4.7-0.8,5.9-2.1c1.5-1.5,2-3.7,2-5.7v-0.8h-7.9v-11h21v7.5
		C552.2,64,550.8,69,546.8,73.2z M531.2,20.4c-5.8,0-12.1-2.9-12.4-11.8h8c0.2,2.8,2.5,3.5,4.4,3.5s4.1-0.8,4.4-3.5h8
		C543.3,17.5,537,20.4,531.2,20.4z"/>
	<path d="M589,78.8l-2.5-8h-16.5l-2.6,8h-13.8l19.5-53.6h10.2l19.5,53.6H589z M578.6,45.5l-4.8,14.3h9.3L578.6,45.5z"/>
	<path d="M649.2,78.8V57.5h-14v21.2H622V25.1h13.2v20.6h14V25.1h13.2v53.6H649.2z"/>
	<path d="M691.1,79.2c-11.2,0-20.3-7.5-20.3-19.3V25.1H684v34.5c0,5,2.7,7.8,7.1,7.8s7.2-2.9,7.2-7.8V25.1h13.2v34.8
		C711.5,71.7,702.2,79.2,691.1,79.2z"/>
	<path d="M749.8,78.8l-12.4-22l-4.5,5.2v16.8h-13V25.1h13v19l15.5-19h16.1l-18.3,21.7l18.9,31.9H749.8z"/>
	<path d="M788.5,79.2c-11.2,0-20.3-7.5-20.3-19.3V25.1h13.2v34.5c0,5,2.7,7.8,7.1,7.8s7.2-2.9,7.2-7.8V25.1h13.2v34.8
		C808.9,71.7,799.6,79.2,788.5,79.2z"/>
	<path d="M847.2,78.8l-12.4-22l-4.5,5.2v16.8h-13V25.1h13v19l15.5-19H862l-18.3,21.7l18.9,31.9H847.2z"/>
	<path d="M905.1,78.8h-23.4V25.1H904c11.2,0,17.1,6.3,17.1,15.5c0,6.1-4.2,9.5-5.9,10.6c2.2,1.4,6.6,4.1,6.6,11.7
		C921.8,73.2,914.7,78.8,905.1,78.8z M903.1,36.9h-8.2v8.7h8.2c3.6,0,4.7-2.3,4.7-4.4C907.9,39.2,906.8,36.9,903.1,36.9z
		 M903.8,57.5h-8.9v9.4h8.9c3.6,0,4.8-2.5,4.8-4.7C908.6,59.9,907.4,57.5,903.8,57.5z"/>
	<path d="M948.8,79.2c-11.2,0-20.3-7.5-20.3-19.3V25.1h13.2v34.5c0,5,2.7,7.8,7.1,7.8s7.2-2.9,7.2-7.8V25.1h13.2v34.8
		C969.2,71.7,960,79.2,948.8,79.2z M935.3,19.9V9h10.1v10.9H935.3z M952.3,19.9V9h10.1v10.9H952.3z"/>
	<path d="M1004.8,78.8l-9.5-20h-4.4v20h-13.2V25.1h21.2c11.9,0,18.3,8.4,18.3,17.3c0,7.3-4.5,11.9-8.7,14l11.6,22.4H1004.8z
		 M998.3,36.9h-7.5v10.9h7.5c3.6,0,5.7-2.6,5.7-5.4C1004,39.6,1001.9,36.9,998.3,36.9z"/>
	<path d="M1058.9,73.2c-3.9,3.9-8.4,6-15,6s-11.1-2.1-15-6c-5.7-5.7-5.4-13.2-5.4-21.2c0-8.1-0.2-15.6,5.4-21.2c3.9-3.9,8.4-6,15-6
		s11.1,2.1,15,6c5.7,5.7,5.4,13.2,5.4,21.2C1064.4,60,1064.6,67.5,1058.9,73.2z M1049.2,38.7c-1-1.3-2.9-2.3-5.3-2.3
		s-4.3,1.1-5.3,2.3c-1.2,1.6-2,3.4-2,13.2c0,9.8,0.8,11.5,2,13.1c1,1.3,2.9,2.4,5.3,2.4s4.3-1.1,5.3-2.4c1.2-1.6,2-3.3,2-13.1
		C1051.2,42.1,1050.4,40.3,1049.2,38.7z"/>
	<path d="M1087.3,79.2c-8.2,0-14.9-1.5-20.3-7.1l8.4-8.4c2.8,2.8,7.7,3.8,12,3.8c5.2,0,7.7-1.7,7.7-4.8c0-1.3-0.3-2.3-1.1-3.2
		c-0.7-0.7-1.8-1.2-3.5-1.4l-6.5-0.9c-4.7-0.7-8.4-2.3-10.8-4.7c-2.5-2.6-3.7-6.2-3.7-10.8c0-9.8,7.4-17,19.6-17
		c7.7,0,13.5,1.8,18.1,6.4l-8.3,8.3c-3.4-3.4-7.8-3.2-10.2-3.2c-4.6,0-6.5,2.6-6.5,5c0,0.7,0.2,1.7,1.1,2.5c0.7,0.7,1.8,1.4,3.7,1.6
		l6.5,0.9c4.8,0.7,8.3,2.2,10.5,4.4c2.9,2.8,4,6.8,4,11.8C1108,73.3,1098.6,79.2,1087.3,79.2z"/>
	<path d="M1134.5,79.2c-11.2,0-20.3-7.5-20.3-19.3V25.1h13.2v34.5c0,5,2.7,7.8,7.1,7.8s7.2-2.9,7.2-7.8V25.1h13.2v34.8
		C1154.9,71.7,1145.7,79.2,1134.5,79.2z"/>
</g>
<rect x="280.4" y="100.3" width="873.8" height="3.7"/>
</svg>
